<?xml version="1.0" encoding="utf-8"?>
<!-- Generator: Adobe Illustrator 19.2.0, SVG Export Plug-In . SVG Version: 6.00 Build 0)  -->
<svg version="1.1" id="Capa_1" xmlns="http://www.w3.org/2000/svg" xmlns:xlink="http://www.w3.org/1999/xlink" x="0px" y="0px"
	 viewBox="0 0 35 26" style="enable-background:new 0 0 35 26;" xml:space="preserve">
<path d="M21.3,24.3c-0.4,0.4-0.4,1,0,1.4c0.2,0.2,0.5,0.3,0.7,0.3s0.5-0.1,0.7-0.3l12-12c0.1-0.1,0.2-0.2,0.2-0.3
	c0.1-0.2,0.1-0.5,0-0.8c-0.1-0.1-0.1-0.2-0.2-0.3l-12-12c-0.4-0.4-1-0.4-1.4,0s-0.4,1,0,1.4L31.6,12H1c-0.6,0-1,0.4-1,1s0.4,1,1,1
	h30.6L21.3,24.3z"/>
</svg>
