<?xml version="1.0" encoding="utf-8"?>
<!-- Generator: Adobe Illustrator 19.2.0, SVG Export Plug-In . SVG Version: 6.00 Build 0)  -->
<svg version="1.1" id="Layer_1" xmlns="http://www.w3.org/2000/svg" xmlns:xlink="http://www.w3.org/1999/xlink" x="0px" y="0px"
	 viewBox="0 0 79.8 58.2" style="enable-background:new 0 0 79.8 58.2;" xml:space="preserve">
<style type="text/css">
	.st0{clip-path:url(#SVGID_2_);fill:#00518D;}
	.st1{clip-path:url(#SVGID_4_);fill:#1D95D3;}
	.st2{clip-path:url(#SVGID_6_);fill:#3AC5F2;}
</style>
<g>
	<g>
		<g>
			<g>
				<defs>
					<path id="SVGID_1_" d="M0.8,54.4c27.5-3,51-4.4,78.3,1.6c0.5,0.1,0.8,0.7,0.7,1.3c-0.1,0.6-0.6,1-1.1,0.8
						c-27-5.9-50.4-4.5-77.7-1.5c-0.5,0.1-1-0.4-1-1S0.3,54.4,0.8,54.4"/>
				</defs>
				<clipPath id="SVGID_2_">
					<use xlink:href="#SVGID_1_"  style="overflow:visible;"/>
				</clipPath>
				<rect x="-5" y="46.8" class="st0" width="89.9" height="16.4"/>
			</g>
		</g>
	</g>
</g>
<g>
	<g>
		<g>
			<g>
				<defs>
					<path id="SVGID_3_" d="M38.3,0h2.3v50.5c-7.5,0-15,0.3-22.7,0.9L38.3,6.1V0z"/>
				</defs>
				<clipPath id="SVGID_4_">
					<use xlink:href="#SVGID_3_"  style="overflow:visible;"/>
				</clipPath>
				<rect x="12.8" y="-5" class="st1" width="32.7" height="61.4"/>
			</g>
		</g>
	</g>
</g>
<g>
	<g>
		<g>
			<g>
				<defs>
					<path id="SVGID_5_" d="M42.5,17.2v33.3c5.2,0.1,10.3,0.3,15.6,0.8L42.5,17.2z"/>
				</defs>
				<clipPath id="SVGID_6_">
					<use xlink:href="#SVGID_5_"  style="overflow:visible;"/>
				</clipPath>
				<rect x="37.5" y="12.2" class="st2" width="25.6" height="44.1"/>
			</g>
		</g>
	</g>
</g>
</svg>
