<?xml version="1.0" encoding="utf-8"?>
<!-- Generator: Adobe Illustrator 18.0.0, SVG Export Plug-In . SVG Version: 6.00 Build 0)  -->
<!DOCTYPE svg PUBLIC "-//W3C//DTD SVG 1.1//EN" "http://www.w3.org/Graphics/SVG/1.1/DTD/svg11.dtd">
<svg version="1.1" id="Layer_1" xmlns="http://www.w3.org/2000/svg" xmlns:xlink="http://www.w3.org/1999/xlink" x="0px" y="0px"
	 viewBox="0.2 389.8 674.8 211.5" enable-background="new 0.2 389.8 674.8 211.5" xml:space="preserve">
<g>
	<path fill="#52C3C2" d="M326.6,533.9c0,0-30.2,4.6-30.7-22.4V484h-10.3v-11.8h10.3v-16.6h15.3v16.4h14.4v11.8h-14.4v27.4
		c0.6,12.3,15.4,9.4,15.4,9.4V533.9z"/>
	<path fill="#52C3C2" d="M374.7,485.8c-2.2-1.9-5.5-3.8-8.8-3.8c-7.2,0-11,11.4-12.5,14.9v36.8h-15.3v-47.9c0-6.1-1.3-10.7-1.7-13.8
		h14l2.4,10.5c2.2-3.8,8.8-12.3,15.3-12.3c5.1,0,8.1,1.1,11.8,2.9L374.7,485.8z"/>
	<path fill="#52C3C2" d="M426,533.9l-2.2-6.3c-3.3,3.3-9.4,7.9-16,7.9c-15.6,0-23.9-6.3-23.9-17.9c0-12.5,7.6-22.4,33.9-22.4h5.1v-3
		c0-4.8-0.9-9.9-8.8-9.9c-8.5,0-16.6,2.6-22.4,5.3l-5.3-12.5c8.3-2.9,19-4.6,28.5-4.6c13.6,0,23.4,6.3,23.4,19.7v24.9
		c0,4.8,1.7,12,2.4,19H426L426,533.9L426,533.9z M422.9,505.3h-3.3c-14.5,0-19.9,4.2-19.9,11.6c0,5.3,5.3,6.8,10.8,6.8
		c5.7,0,9.7-2.9,12.3-6.3L422.9,505.3L422.9,505.3z"/>
	<path fill="#52C3C2" d="M482.7,533.9h-14.9l-23.9-61.6h16.4l15.4,43.6l14.9-43.6h15.8L482.7,533.9z"/>
	<path fill="#52C3C2" d="M553.3,485.8c-2.2-1.9-5.5-3.8-8.8-3.8c-7.2,0-11,11.4-12.5,14.9v36.8h-15.3v-47.9c0-6.1-1.3-10.7-1.7-13.8
		h14l2.4,10.5c2.2-3.8,8.8-12.3,15.3-12.3c5.1,0,8.1,1.1,11.8,2.9L553.3,485.8z"/>
	<path fill="#52C3C2" d="M605.6,533.9v-39.6c0-6.1-0.6-12.3-9.6-12.3c-6.3,0-10.7,5.7-13.4,11.6v40.1h-15.3v-48.4
		c0-5.1-1.1-8.8-1.7-13.1h14l2.4,8.1c2.6-2.8,7.7-9.9,16.4-9.9c18.1,0,22.3,10.5,22.3,24.7v38.8L605.6,533.9L605.6,533.9z"/>
	<path fill="#52C3C2" d="M669.9,485.8c-2.2-1.9-5.5-3.8-8.8-3.8c-7.2,0-11,11.4-12.5,14.9v36.8h-15.3v-47.9c0-6.1-1.3-10.7-1.7-13.8
		h14l2.4,10.5c2.2-3.8,8.8-12.3,15.3-12.3c5.1,0,8.1,1.1,11.8,2.9L669.9,485.8z"/>
</g>
<g>
	<path fill="#52C3C2" d="M120.7,584.8c-3.1,0-5.8-1.6-7.4-4.2L1.6,403.3c-1.8-2.7-1.8-6.1-0.3-9c1.6-2.7,4.5-4.5,7.7-4.5h0.3
		l107.4,20.9c2.7,0.5,5.7,0.5,8.4,0l107.4-20.9h0.3c3.2,0,6.1,1.8,7.7,4.5c1.6,2.9,1.5,6.1-0.3,9L128.3,580.8
		C126.5,583.3,123.7,584.8,120.7,584.8z M8.6,396.4c-1,0.2-1.6,0.8-1.8,1.1s-0.5,1.3,0.2,2.2l111.9,177.4c0.6,1,1.5,1.1,1.9,1.1
		c0.3,0,1.3-0.2,1.9-1.1l111.7-177.4c0.6-1,0.3-1.9,0-2.2c-0.2-0.3-0.6-1.1-1.8-1.1l-106.6,20.8c-3.5,0.6-7.2,0.6-10.8,0L8.6,396.4z
		"/>
	<rect x="118.1" y="417.2" fill="#52C3C2" width="5.3" height="63.9"/>
	<rect x="118.1" y="494.8" fill="#52C3C2" width="5.3" height="16.8"/>
	<rect x="118.1" y="521" fill="#52C3C2" width="5.3" height="11.1"/>
	<rect x="118.1" y="543.5" fill="#52C3C2" width="5.3" height="7.4"/>
	<rect x="118.1" y="595.7" fill="#52C3C2" width="5.3" height="5.7"/>
</g>
</svg>
