<?xml version="1.0" encoding="utf-8"?>
<!-- Generator: Adobe Illustrator 18.0.0, SVG Export Plug-In . SVG Version: 6.00 Build 0)  -->
<!DOCTYPE svg PUBLIC "-//W3C//DTD SVG 1.1//EN" "http://www.w3.org/Graphics/SVG/1.1/DTD/svg11.dtd">
<svg version="1.1" id="Layer_1" xmlns="http://www.w3.org/2000/svg" xmlns:xlink="http://www.w3.org/1999/xlink" x="0px" y="0px"
	 viewBox="0.2 195.6 1443.4 508.9" enable-background="new 0.2 195.6 1443.4 508.9" xml:space="preserve">
<g>
	<path fill="#52C3C2" d="M710.5,530.6c0,0-63.5,9.7-64.7-47.2v-57.7h-21.7v-24.8h21.7V366H678v34.5h30.2v24.8H678v57.7
		c1.2,25.9,32.5,19.8,32.5,19.8V530.6z"/>
	<path fill="#52C3C2" d="M811.6,429.5c-4.6-3.9-11.6-8.1-18.6-8.1c-15.1,0-23.2,24-26.3,31.4v77.5h-32.1V429.5
		c0-12.8-2.7-22.5-3.5-29h29.4l5,22.1c4.6-8.1,18.6-25.9,32.1-25.9c10.8,0,17,2.3,24.8,6.2L811.6,429.5z"/>
	<path fill="#52C3C2" d="M919.6,530.6l-4.6-13.2c-7,7-19.8,16.7-33.7,16.7c-32.9,0-50.3-13.2-50.3-37.6c0-26.3,15.9-47.2,71.3-47.2
		H913V443c0-10.1-1.9-20.9-18.6-20.9c-17.8,0-34.9,5.4-47.2,11.2L836,407c17.4-6.2,39.9-9.7,60-9.7c28.7,0,49.2,13.2,49.2,41.4v52.3
		c0,10.1,3.5,25.2,5,39.9h-30.6V530.6z M913,470.5h-7c-30.6,0-41.8,8.9-41.8,24.4c0,11.2,11.2,14.3,22.8,14.3
		c12,0,20.5-6.2,25.9-13.2L913,470.5L913,470.5z"/>
	<path fill="#52C3C2" d="M1038.9,530.6h-31.4l-50.3-129.7h34.5l32.5,91.8l31.4-91.8h33.3L1038.9,530.6z"/>
	<path fill="#52C3C2" d="M1187.6,429.5c-4.6-3.9-11.6-8.1-18.6-8.1c-15.1,0-23.2,24-26.3,31.4v77.5h-32.1V429.5
		c0-12.8-2.7-22.5-3.5-29h29.4l5,22.1c4.6-8.1,18.6-25.9,32.1-25.9c10.8,0,17,2.3,24.8,6.2L1187.6,429.5z"/>
	<path fill="#52C3C2" d="M1297.6,530.6v-83.3c0-12.8-1.2-25.9-20.1-25.9c-13.2,0-22.5,12-28.3,24.4v84.4h-32.1V428.3
		c0-10.8-2.3-18.6-3.5-27.5h29.4l5,17c5.4-5.8,16.3-20.9,34.5-20.9c38,0,46.9,22.1,46.9,51.9v81.7H1297.6z"/>
	<path fill="#52C3C2" d="M1432.8,429.5c-4.6-3.9-11.6-8.1-18.6-8.1c-15.1,0-23.2,24-26.3,31.4v77.5h-32.1V429.5
		c0-12.8-2.7-22.5-3.5-29h29.4l5,22.1c4.6-8.1,18.6-25.9,32.1-25.9c10.8,0,17,2.3,24.8,6.2L1432.8,429.5z"/>
</g>
<g>
	<path fill="#52C3C2" d="M290.1,664.6c-7.4,0-13.9-3.9-17.8-10.1L3.5,228.1c-4.3-6.6-4.3-14.7-0.8-21.7c3.9-6.6,10.8-10.8,18.6-10.8
		h0.8l258.3,50.3c6.6,1.2,13.6,1.2,20.1,0l258.3-50.3h0.8c7.7,0,14.7,4.3,18.6,10.8c3.9,7,3.5,14.7-0.8,21.7L308.3,654.9
		C304,661.1,297.4,664.6,290.1,664.6z M20.5,211.4c-2.3,0.4-3.9,1.9-4.3,2.7c-0.4,0.8-1.2,3.1,0.4,5.4l269.2,426.8
		c1.5,2.3,3.5,2.7,4.6,2.7c0.8,0,3.1-0.4,4.6-2.7l268.8-426.8c1.5-2.3,0.8-4.6,0-5.4c-0.4-0.8-1.5-2.7-4.3-2.7l-256.4,50
		c-8.5,1.5-17.4,1.5-25.9,0L20.5,211.4z"/>
	<rect x="283.9" y="261.4" fill="#52C3C2" width="12.8" height="153.7"/>
	<rect x="283.9" y="448.1" fill="#52C3C2" width="12.8" height="40.3"/>
	<rect x="283.9" y="511.2" fill="#52C3C2" width="12.8" height="26.7"/>
	<rect x="283.9" y="565.4" fill="#52C3C2" width="12.8" height="17.8"/>
	<rect x="283.9" y="690.9" fill="#52C3C2" width="12.8" height="13.6"/>
</g>
</svg>
