<?xml version="1.0" encoding="utf-8"?>
<!-- Generator: Adobe Illustrator 19.2.0, SVG Export Plug-In . SVG Version: 6.00 Build 0)  -->
<svg version="1.1" id="Layer_1" xmlns="http://www.w3.org/2000/svg" xmlns:xlink="http://www.w3.org/1999/xlink" x="0px" y="0px"
	 viewBox="0 0 79.9 85.3" style="enable-background:new 0 0 79.9 85.3;" xml:space="preserve">
<style type="text/css">
	.st0{clip-path:url(#SVGID_2_);fill:#FFFFFF;}
	.st1{clip-path:url(#SVGID_4_);fill:#FFFFFF;}
	.st2{clip-path:url(#SVGID_6_);fill:#00518D;}
	.st3{clip-path:url(#SVGID_8_);fill:#1D95D3;}
	.st4{clip-path:url(#SVGID_10_);fill:#3AC5F2;}
</style>
<g>
	<g>
		<defs>
			<path id="SVGID_1_" d="M66.9,71.4h2.2c0,0.3,0,0.6-0.1,0.9c0,0.2-0.2,0.5-0.4,0.6c-0.2,0.2-0.5,0.3-0.9,0.3h-2.9
				c-0.4,0-0.7-0.1-0.9-0.3c-0.2-0.2-0.3-0.5-0.3-0.9v-7.7l0.1-0.1h0.8c0.8,0,1.2,0.4,1.2,1.3v5.9C66.1,71.4,66.5,71.4,66.9,71.4z
				 M56.1,70.6v0.9l0,0c0.4,0,0.7,0,1,0h3c0,0.3,0,0.6,0,0.7c-0.1,0.7-0.5,1-1.3,1h-3.5c-0.4,0-0.7-0.1-0.9-0.3
				C54.1,72.7,54,72.4,54,72v-7.6l0.1-0.1h5.6c0.1,0.3,0.1,0.5,0.1,0.8s-0.1,0.6-0.2,0.9h-3.5v0.9v0.9c0.2,0,0.5,0,0.9,0h2
				c0.1,0.2,0.1,0.5,0.1,0.8s0,0.6-0.1,0.9h-2.9C56.1,69.5,56.1,70.6,56.1,70.6z M49.8,64.2L49.8,64.2l0.1,8.9
				c-0.3,0.1-0.8,0.1-1.2,0.1c-0.5,0-0.9,0-1.3-0.1l-2-4.7c-0.2-0.5-0.5-1.1-0.7-1.8l0,0c0.1,1.3,0.2,2.6,0.2,3.9v2.6
				c-0.3,0.1-0.6,0.1-1,0.1s-0.7,0-1-0.1v-8.8c0.3-0.1,0.7-0.1,1.2-0.1s0.9,0,1.2,0.1l2,4.6c0.4,0.9,0.6,1.5,0.8,2h0.1
				C48,69.7,48,68.4,48,67.1v-1.6c0-0.5,0.1-0.8,0.3-1s0.5-0.3,0.9-0.3H49.8z M38.6,64.2L38.6,64.2l0.1,8.9
				c-0.3,0.1-0.8,0.1-1.2,0.1c-0.5,0-0.9,0-1.3-0.1l-2-4.7c-0.2-0.5-0.5-1.1-0.7-1.8l0,0c0.1,1.3,0.2,2.6,0.2,3.9v2.6
				c-0.3,0.1-0.6,0.1-1,0.1s-0.7,0-1-0.1v-8.8c0.3-0.1,0.7-0.1,1.2-0.1s0.9,0,1.2,0.1l2,4.6c0.4,0.9,0.6,1.5,0.8,2H37
				c-0.1-1.2-0.2-2.5-0.2-3.8v-1.6c0-0.5,0.1-0.8,0.3-1s0.5-0.3,0.9-0.3C38,64.2,38.6,64.2,38.6,64.2z M27.6,64.3v5.6
				c0,1.1-0.3,2-0.9,2.6s-1.5,0.9-2.6,0.9s-2-0.3-2.6-0.9s-0.9-1.5-0.9-2.6v-5.6l0.1-0.1h0.8c0.8,0,1.2,0.4,1.2,1.3v4.4
				c0,0.6,0.1,1.1,0.3,1.4c0.2,0.3,0.6,0.4,1.1,0.4s0.9-0.1,1.1-0.4s0.3-0.7,0.3-1.4v-5.6c0.3-0.1,0.6-0.1,1-0.1
				C26.9,64.2,27.3,64.3,27.6,64.3z M13.6,66.1v1v0.8h2.8c0.1,0.3,0.1,0.5,0.1,0.9s0,0.6-0.1,0.9h-2.8v3.6c-0.3,0.1-0.6,0.1-1,0.1
				s-0.8,0-1-0.1v-8.8l0.1-0.1h5.6c0.1,0.2,0.1,0.5,0.1,0.8s-0.1,0.6-0.3,0.7c-0.2,0.2-0.5,0.2-0.8,0.2H13.6z"/>
		</defs>
		<clipPath id="SVGID_2_">
			<use xlink:href="#SVGID_1_"  style="overflow:visible;"/>
		</clipPath>
		<rect x="6.5" y="59.2" class="st0" width="67.6" height="19.2"/>
	</g>
</g>
<g>
	<g>
		<defs>
			<path id="SVGID_3_" d="M57.2,84.6c0-0.2,0.1-0.4,0.3-0.6c0.7,0.5,1.3,0.7,2,0.7c0.5,0,0.8-0.1,1.1-0.3c0.3-0.2,0.4-0.5,0.4-0.8
				c0-0.5-0.4-0.9-1.1-1.2l-1.2-0.5c-0.9-0.4-1.3-0.9-1.3-1.7c0-0.3,0.1-0.5,0.2-0.7c0.1-0.2,0.3-0.4,0.4-0.6
				c0.2-0.2,0.4-0.3,0.7-0.4s0.6-0.1,0.9-0.1c0.6,0,1.3,0.2,2,0.5c0,0.3-0.1,0.5-0.3,0.6c-0.3-0.2-0.6-0.3-0.9-0.4
				C60.1,79,59.9,79,59.6,79c-0.2,0-0.4,0-0.6,0.1c-0.2,0.1-0.3,0.1-0.4,0.2c-0.1,0.1-0.2,0.2-0.3,0.3c-0.1,0.1-0.1,0.3-0.1,0.4
				c0,0.3,0.1,0.5,0.3,0.7s0.4,0.3,0.7,0.4l1.1,0.5c1,0.4,1.5,1,1.5,1.8c0,0.6-0.2,1-0.6,1.4c-0.4,0.4-1,0.5-1.8,0.5
				C58.6,85.3,57.9,85.1,57.2,84.6z M53.3,84.5h2.1c0,0.1,0,0.3,0,0.3c0,0.2-0.2,0.4-0.5,0.4h-2.8c-0.1,0-0.2,0-0.3-0.1
				s-0.1-0.2-0.1-0.4v-6.3l0.1-0.1H52c0.2,0,0.3,0,0.3,0.1c0.1,0.1,0.1,0.2,0.1,0.4v5.7C52.7,84.5,53,84.5,53.3,84.5z M45.6,84.2
				v0.4c0.2,0,0.4,0,0.6,0H49c0,0.1,0,0.2,0,0.3c0,0.2-0.2,0.4-0.5,0.4h-3.2c-0.1,0-0.2,0-0.3-0.1s-0.1-0.2-0.1-0.4v-6.3l0.1-0.1
				h3.9c0,0.1,0,0.2,0,0.3c0,0.1,0,0.2,0,0.3h-3.2v0.6v1.8h0.6h2.1c0,0.1,0,0.2,0,0.3s0,0.2,0,0.3h-2.1c-0.3,0-0.5,0-0.6,0v2.2
				L45.6,84.2L45.6,84.2z M40.1,84.4l1.7-6.1c0.1,0,0.2,0,0.3,0s0.2,0,0.3,0v0.1l-2,6.8c-0.2,0-0.4,0-0.5,0c-0.2,0-0.3,0-0.4-0.1
				c-0.1-0.1-0.2-0.2-0.2-0.3l-1.9-6.4c0.2-0.1,0.3-0.1,0.5-0.1s0.4,0.1,0.4,0.4l1.2,4C39.7,83,39.8,83.6,40.1,84.4
				C40,84.4,40.1,84.4,40.1,84.4z M32.4,82.8H33h1.2c0,0,0.1,0,0.2,0c0.2,0,0.3,0,0.3,0l-0.6-1.9c-0.3-0.8-0.4-1.3-0.5-1.7l0,0
				c-0.1,0.5-0.2,0.9-0.3,1.2L32.4,82.8z M34.9,83.4h-0.7h-1.3h-0.7l-0.6,1.8c-0.1,0-0.2,0-0.3,0c-0.1,0-0.3,0-0.4,0l0,0l2.3-6.8
				c0.1,0,0.3,0,0.5,0s0.3,0,0.4,0l2.3,6.8c-0.1,0.1-0.2,0.1-0.4,0.1s-0.3,0-0.3-0.1c-0.1-0.1-0.1-0.2-0.2-0.3L34.9,83.4z M25.3,79
				v2.7c0.1,0,0.3,0,0.5,0s0.4,0,0.7,0c0.3,0,0.5,0,0.7-0.1s0.3-0.2,0.4-0.3c0.1-0.1,0.2-0.3,0.2-0.4c0-0.2,0.1-0.3,0.1-0.5
				s0-0.4-0.1-0.5c0-0.2-0.1-0.3-0.2-0.4s-0.3-0.2-0.5-0.3S26.8,79,26.5,79h-0.7C25.6,79,25.5,79,25.3,79z M24.6,78.4h2
				c0.7,0,1.2,0.2,1.6,0.5s0.6,0.8,0.6,1.5c0,0.4-0.1,0.8-0.4,1.2c-0.2,0.3-0.6,0.5-1,0.7c0.3,0.1,0.5,0.4,0.7,0.8l0.5,1.3
				c0.1,0.2,0.1,0.3,0.2,0.5c0.1,0.1,0.1,0.2,0.2,0.3c-0.1,0.2-0.3,0.2-0.5,0.2c-0.1,0-0.2,0-0.3-0.1c-0.1-0.1-0.2-0.2-0.2-0.4
				l-0.6-1.5c-0.1-0.3-0.2-0.5-0.4-0.7c-0.2-0.2-0.4-0.2-0.7-0.2h-1v2.9c-0.1,0-0.2,0-0.4,0c-0.1,0-0.3,0-0.4,0L24.6,78.4L24.6,78.4
				z M21,79h-0.6v6.2c-0.1,0-0.2,0-0.4,0c-0.1,0-0.3,0-0.4,0V79h-0.5h-1.3c0-0.1,0-0.2,0-0.3s0-0.2,0-0.3h4.4c0,0.1,0.1,0.2,0.1,0.3
				c0,0.2-0.2,0.3-0.5,0.3H21z"/>
		</defs>
		<clipPath id="SVGID_4_">
			<use xlink:href="#SVGID_3_"  style="overflow:visible;"/>
		</clipPath>
		<rect x="12.8" y="73.2" class="st1" width="54.1" height="17.1"/>
	</g>
</g>
<g>
	<g>
		<g>
			<defs>
				<path id="SVGID_5_" d="M0.8,54.4c27.5-3,51-4.4,78.3,1.6c0.5,0.1,0.8,0.7,0.7,1.3c-0.1,0.6-0.6,1-1.1,0.8
					c-27-5.9-50.4-4.5-77.7-1.5c-0.5,0.1-1-0.4-1-1S0.3,54.4,0.8,54.4"/>
			</defs>
			<clipPath id="SVGID_6_">
				<use xlink:href="#SVGID_5_"  style="overflow:visible;"/>
			</clipPath>
			<rect x="-5" y="46.8" class="st2" width="89.9" height="16.4"/>
		</g>
	</g>
</g>
<g>
	<g>
		<g>
			<defs>
				<path id="SVGID_7_" d="M38.3,0h2.3v50.5c-7.5,0-15,0.3-22.7,0.9L38.3,6.1V0z"/>
			</defs>
			<clipPath id="SVGID_8_">
				<use xlink:href="#SVGID_7_"  style="overflow:visible;"/>
			</clipPath>
			<rect x="12.8" y="-5" class="st3" width="32.7" height="61.4"/>
		</g>
	</g>
</g>
<g>
	<g>
		<g>
			<defs>
				<path id="SVGID_9_" d="M42.5,17.2v33.3c5.2,0.1,10.3,0.3,15.6,0.8L42.5,17.2z"/>
			</defs>
			<clipPath id="SVGID_10_">
				<use xlink:href="#SVGID_9_"  style="overflow:visible;"/>
			</clipPath>
			<rect x="37.5" y="12.2" class="st4" width="25.6" height="44.1"/>
		</g>
	</g>
</g>
</svg>
