<?xml version="1.0" encoding="utf-8"?>
<!-- Generator: Adobe Illustrator 19.2.0, SVG Export Plug-In . SVG Version: 6.00 Build 0)  -->
<svg version="1.1" id="Layer_1" xmlns="http://www.w3.org/2000/svg" xmlns:xlink="http://www.w3.org/1999/xlink" x="0px" y="0px"
	 viewBox="0 0 57.5 21.2" style="enable-background:new 0 0 57.5 21.2;" xml:space="preserve">
<style type="text/css">
	.st0{clip-path:url(#SVGID_2_);fill:#FFFFFF;}
	.st1{clip-path:url(#SVGID_4_);fill:#FFFFFF;}
</style>
<g>
	<g>
		<g>
			<defs>
				<path id="SVGID_1_" d="M55.3,7.2h2.2c0,0.3,0,0.6-0.1,0.9c0,0.2-0.2,0.5-0.4,0.6C56.8,8.9,56.5,9,56.1,9h-2.9
					c-0.4,0-0.7-0.1-0.9-0.3C52.1,8.5,52,8.2,52,7.8V0.1L52.1,0h0.8c0.8,0,1.2,0.4,1.2,1.3v5.9C54.5,7.2,54.9,7.2,55.3,7.2z
					 M44.5,6.4v0.9l0,0c0.4,0,0.7,0,1,0h3c0,0.3,0,0.6,0,0.7c-0.1,0.7-0.5,1-1.3,1h-3.5c-0.4,0-0.7-0.1-0.9-0.3
					c-0.3-0.2-0.4-0.5-0.4-0.9V0.2l0.1-0.1h5.6c0.1,0.3,0.1,0.5,0.1,0.8S48.1,1.5,48,1.8h-3.5v0.9v0.9c0.2,0,0.5,0,0.9,0h2
					c0.1,0.2,0.1,0.5,0.1,0.8s0,0.6-0.1,0.9h-2.9C44.5,5.3,44.5,6.4,44.5,6.4z M38.2,0L38.2,0l0.1,8.9C38,9,37.5,9,37.1,9
					c-0.5,0-0.9,0-1.3-0.1l-2-4.7c-0.2-0.5-0.5-1.1-0.7-1.8l0,0c0.1,1.3,0.2,2.6,0.2,3.9v2.6C33,9,32.7,9,32.3,9s-0.7,0-1-0.1V0.1
					C31.6,0,32,0,32.5,0s0.9,0,1.2,0.1l2,4.6c0.4,0.9,0.6,1.5,0.8,2h0.1c-0.2-1.2-0.2-2.5-0.2-3.8V1.3c0-0.5,0.1-0.8,0.3-1
					S37.2,0,37.6,0H38.2z M27,0L27,0l0.1,8.9C26.8,9,26.3,9,25.9,9c-0.5,0-0.9,0-1.3-0.1l-2-4.7c-0.2-0.5-0.5-1.1-0.7-1.8l0,0
					C22,3.7,22.1,5,22.1,6.3v2.6C21.8,9,21.5,9,21.1,9s-0.7,0-1-0.1V0.1C20.4,0,20.8,0,21.3,0s0.9,0,1.2,0.1l2,4.6
					c0.4,0.9,0.6,1.5,0.8,2h0.1c-0.1-1.2-0.2-2.5-0.2-3.8V1.3c0-0.5,0.1-0.8,0.3-1S26,0,26.4,0C26.4,0,27,0,27,0z M16,0.1v5.6
					c0,1.1-0.3,2-0.9,2.6s-1.5,0.9-2.6,0.9s-2-0.3-2.6-0.9S9,6.8,9,5.7V0.1L9.1,0h0.8c0.8,0,1.2,0.4,1.2,1.3v4.4
					c0,0.6,0.1,1.1,0.3,1.4c0.2,0.3,0.6,0.4,1.1,0.4s0.9-0.1,1.1-0.4s0.3-0.7,0.3-1.4V0.1C14.2,0,14.5,0,14.9,0
					C15.3,0,15.7,0.1,16,0.1z M2,1.9v1v0.8h2.8C4.9,4,4.9,4.2,4.9,4.6s0,0.6-0.1,0.9H2v3.6C1.7,9.2,1.4,9.2,1,9.2s-0.8,0-1-0.1V0.3
					l0.1-0.1h5.6C5.8,0.4,5.8,0.7,5.8,1S5.7,1.6,5.5,1.7C5.3,1.9,5,1.9,4.7,1.9H2z"/>
			</defs>
			<clipPath id="SVGID_2_">
				<use xlink:href="#SVGID_1_"  style="overflow:visible;"/>
			</clipPath>
			<rect x="-5.1" y="-5" class="st0" width="67.6" height="19.2"/>
		</g>
	</g>
</g>
<g>
	<g>
		<g>
			<defs>
				<path id="SVGID_3_" d="M45.6,20.4c0-0.2,0.1-0.4,0.3-0.6c0.7,0.5,1.3,0.7,2,0.7c0.5,0,0.8-0.1,1.1-0.3c0.3-0.2,0.4-0.5,0.4-0.8
					c0-0.5-0.4-0.9-1.1-1.2l-1.2-0.5c-0.9-0.4-1.3-0.9-1.3-1.7c0-0.3,0.1-0.5,0.2-0.7c0.1-0.2,0.3-0.4,0.4-0.6
					c0.2-0.2,0.4-0.3,0.7-0.4s0.6-0.1,0.9-0.1c0.6,0,1.3,0.2,2,0.5c0,0.3-0.1,0.5-0.3,0.6c-0.3-0.2-0.6-0.3-0.9-0.4
					c-0.3-0.1-0.5-0.1-0.8-0.1c-0.2,0-0.4,0-0.6,0.1C47.2,15,47.1,15,47,15.1c-0.1,0.1-0.2,0.2-0.3,0.3c-0.1,0.1-0.1,0.3-0.1,0.4
					c0,0.3,0.1,0.5,0.3,0.7s0.4,0.3,0.7,0.4l1.1,0.5c1,0.4,1.5,1,1.5,1.8c0,0.6-0.2,1-0.6,1.4c-0.4,0.4-1,0.5-1.8,0.5
					C47,21.1,46.3,20.9,45.6,20.4z M41.7,20.3h2.1c0,0.1,0,0.3,0,0.3c0,0.2-0.2,0.4-0.5,0.4h-2.8c-0.1,0-0.2,0-0.3-0.1
					s-0.1-0.2-0.1-0.4v-6.3l0.1-0.1h0.2c0.2,0,0.3,0,0.3,0.1c0.1,0.1,0.1,0.2,0.1,0.4v5.7C41.1,20.3,41.4,20.3,41.7,20.3z M34,20
					v0.4c0.2,0,0.4,0,0.6,0h2.8c0,0.1,0,0.2,0,0.3c0,0.2-0.2,0.4-0.5,0.4h-3.2c-0.1,0-0.2,0-0.3-0.1s-0.1-0.2-0.1-0.4v-6.3l0.1-0.1
					h3.9c0,0.1,0,0.2,0,0.3c0,0.1,0,0.2,0,0.3h-3.2v0.6v1.8h0.6h2.1c0,0.1,0,0.2,0,0.3s0,0.2,0,0.3h-2.1c-0.3,0-0.5,0-0.6,0V20
					L34,20L34,20z M28.5,20.2l1.7-6.1c0.1,0,0.2,0,0.3,0s0.2,0,0.3,0v0.1l-2,6.8c-0.2,0-0.4,0-0.5,0c-0.2,0-0.3,0-0.4-0.1
					c-0.1-0.1-0.2-0.2-0.2-0.3l-1.9-6.4c0.2-0.1,0.3-0.1,0.5-0.1s0.4,0.1,0.4,0.4l1.2,4C28.1,18.8,28.2,19.4,28.5,20.2
					C28.4,20.2,28.5,20.2,28.5,20.2z M20.8,18.6h0.6h1.2c0,0,0.1,0,0.2,0c0.2,0,0.3,0,0.3,0l-0.6-1.9c-0.3-0.8-0.4-1.3-0.5-1.7l0,0
					c-0.1,0.5-0.2,0.9-0.3,1.2L20.8,18.6z M23.3,19.2h-0.7h-1.3h-0.7L20,21c-0.1,0-0.2,0-0.3,0s-0.3,0-0.4,0l0,0l2.3-6.8
					c0.1,0,0.3,0,0.5,0s0.3,0,0.4,0l2.3,6.8c-0.1,0.1-0.2,0.1-0.4,0.1s-0.3,0-0.3-0.1c-0.1-0.1-0.1-0.2-0.2-0.3L23.3,19.2z
					 M13.7,14.8v2.7c0.1,0,0.3,0,0.5,0s0.4,0,0.7,0c0.3,0,0.5,0,0.7-0.1s0.3-0.2,0.4-0.3c0.1-0.1,0.2-0.3,0.2-0.4
					c0-0.2,0.1-0.3,0.1-0.5s0-0.4-0.1-0.5c0-0.2-0.1-0.3-0.2-0.4c-0.1-0.1-0.3-0.2-0.5-0.3s-0.3-0.2-0.6-0.2h-0.7
					C14,14.8,13.9,14.8,13.7,14.8z M13,14.2h2c0.7,0,1.2,0.2,1.6,0.5c0.4,0.3,0.6,0.8,0.6,1.5c0,0.4-0.1,0.8-0.4,1.2
					c-0.2,0.3-0.6,0.5-1,0.7c0.3,0.1,0.5,0.4,0.7,0.8l0.5,1.3c0.1,0.2,0.1,0.3,0.2,0.5c0.1,0.1,0.1,0.2,0.2,0.3
					c-0.1,0.2-0.3,0.2-0.5,0.2c-0.1,0-0.2,0-0.3-0.1c-0.1-0.1-0.2-0.2-0.2-0.4l-0.6-1.5c-0.1-0.3-0.2-0.5-0.4-0.7
					c-0.2-0.2-0.4-0.2-0.7-0.2h-1v2.9c-0.1,0-0.2,0-0.4,0c-0.1,0-0.3,0-0.4,0L13,14.2L13,14.2z M9.4,14.8H8.8V21c-0.1,0-0.2,0-0.4,0
					c-0.1,0-0.3,0-0.4,0v-6.2H7.5H6.2c0-0.1,0-0.2,0-0.3s0-0.2,0-0.3h4.4c0,0.1,0.1,0.2,0.1,0.3c0,0.2-0.2,0.3-0.5,0.3H9.4z"/>
			</defs>
			<clipPath id="SVGID_4_">
				<use xlink:href="#SVGID_3_"  style="overflow:visible;"/>
			</clipPath>
			<rect x="1.2" y="9" class="st1" width="54.1" height="17.1"/>
		</g>
	</g>
</g>
</svg>
