<?xml version="1.0" encoding="utf-8"?>
<!-- Generator: Adobe Illustrator 18.0.0, SVG Export Plug-In . SVG Version: 6.00 Build 0)  -->
<!DOCTYPE svg PUBLIC "-//W3C//DTD SVG 1.1//EN" "http://www.w3.org/Graphics/SVG/1.1/DTD/svg11.dtd">
<svg version="1.1" id="Capa_1" xmlns="http://www.w3.org/2000/svg" xmlns:xlink="http://www.w3.org/1999/xlink" x="0px" y="0px"
	 viewBox="0 0 512 512" enable-background="new 0 0 512 512" xml:space="preserve">
<g>
	<g>
		<path fill="#FFFFFF" d="M75,437c48.4,48.4,112.7,75,181,75s132.7-26.6,181-75s75-112.7,75-181s-26.6-132.7-75-181S324.4,0,256,0
			S123.3,26.6,75,75S0,187.6,0,256S26.6,388.7,75,437z M256,28.3c125.5,0,227.7,102.2,227.7,227.7S381.5,483.7,256,483.7
			S28.3,381.5,28.3,256S130.5,28.3,256,28.3z"/>
		<path fill="#FFFFFF" d="M264.8,334.8c5.5,5.5,14.4,5.5,20,0s5.5-14.4,0-20L226,256l58.8-58.8c5.5-5.5,5.5-14.4,0-20
			c-2.7-2.7-6.4-4.2-9.9-4.2s-7.2,1.4-9.9,4.2l-68.8,68.8c-5.5,5.5-5.5,14.4,0,20L264.8,334.8z"/>
	</g>
</g>
</svg>
