<?xml version="1.0" encoding="utf-8"?>
<!-- Generator: Adobe Illustrator 18.0.0, SVG Export Plug-In . SVG Version: 6.00 Build 0)  -->
<!DOCTYPE svg PUBLIC "-//W3C//DTD SVG 1.1//EN" "http://www.w3.org/Graphics/SVG/1.1/DTD/svg11.dtd">
<svg version="1.1" id="Capa_1" xmlns="http://www.w3.org/2000/svg" xmlns:xlink="http://www.w3.org/1999/xlink" x="0px" y="0px"
	 viewBox="0 0 100 100" enable-background="new 0 0 100 100" xml:space="preserve">
<g>
	<path fill="#F39C12" d="M99.1,94.9L74.8,70.6c6.5-7.5,10.5-17.3,10.5-28C85.3,19.1,66.2,0,42.6,0C19.1,0,0,19.1,0,42.6
		s19.1,42.6,42.6,42.6c10.7,0,20.5-3.9,28-10.5L94.9,99c0.6,0.6,1.4,0.9,2.1,0.9c0.8,0,1.5-0.3,2.1-0.9
		C100.3,98,100.3,96.1,99.1,94.9z M6,42.6C6,22.4,22.4,6,42.6,6s36.7,16.5,36.7,36.7S62.8,79.3,42.6,79.3S6,62.9,6,42.6z"/>
</g>
</svg>
