<?xml version="1.0" standalone="no"?>
<!DOCTYPE svg PUBLIC "-//W3C//DTD SVG 20010904//EN"
 "http://www.w3.org/TR/2001/REC-SVG-20010904/DTD/svg10.dtd">
<svg version="1.0" xmlns="http://www.w3.org/2000/svg"
 width="700.000000pt" height="700.000000pt" viewBox="0 0 700.000000 700.000000"
 preserveAspectRatio="xMidYMid meet">
<metadata>
Created by potrace 1.11, written by Peter Selinger 2001-2013
</metadata>
<g transform="translate(0.000000,700.000000) scale(0.100000,-0.100000)"
fill="#000000" stroke="none">
<path d="M1345 5480 c-62 -19 -115 -93 -115 -160 0 -17 8 -48 18 -68 10 -20
139 -228 286 -462 148 -234 382 -605 521 -825 139 -220 427 -677 640 -1015
213 -338 430 -682 483 -765 52 -82 100 -159 107 -170 37 -68 89 -137 117 -157
45 -32 143 -33 185 -2 16 12 180 262 381 580 565 896 795 1261 822 1304 60 96
328 521 366 580 159 247 579 920 589 945 31 76 -8 170 -89 212 -40 21 0 27
-866 -142 -124 -24 -241 -47 -260 -50 -19 -3 -102 -19 -185 -36 -82 -16 -163
-32 -180 -35 -16 -3 -64 -12 -105 -21 -41 -8 -86 -17 -100 -19 -28 -5 -322
-62 -357 -70 -46 -9 -143 -11 -185 -4 -23 5 -56 10 -73 13 -16 3 -41 7 -55 11
-19 4 -310 60 -475 92 -11 2 -31 6 -45 9 -62 12 -648 125 -670 129 -83 16
-262 51 -445 86 -249 49 -271 52 -310 40z m182 -145 c71 -13 139 -26 153 -29
14 -3 86 -16 160 -31 74 -14 227 -44 340 -66 113 -22 248 -48 300 -59 52 -10
214 -42 360 -70 146 -28 333 -64 417 -80 83 -17 160 -30 172 -30 l21 0 0 -600
0 -600 50 0 50 0 2 597 3 598 40 7 c22 4 56 9 75 13 51 8 79 13 98 19 9 3 35
8 57 11 23 3 50 7 60 9 29 7 276 56 302 60 26 5 71 14 438 87 143 28 269 53
280 55 11 2 34 7 50 9 59 11 192 37 310 61 66 14 131 26 145 28 14 2 61 11
105 20 93 20 125 16 125 -17 0 -13 -48 -99 -107 -193 -60 -94 -128 -203 -153
-242 -25 -40 -151 -240 -280 -445 -264 -417 -1363 -2160 -1482 -2350 -81 -130
-116 -163 -142 -137 -8 8 -231 359 -496 780 -265 421 -492 781 -505 800 -34
51 -304 478 -332 525 -13 22 -41 66 -61 98 -20 32 -124 196 -231 365 -106 169
-213 336 -236 372 -23 36 -54 85 -69 110 -15 25 -56 90 -92 145 -98 151 -107
170 -88 189 19 20 10 21 161 -9z"/>
<path d="M3452 3508 c-4 -4 -5 -76 -2 -159 l5 -153 28 1 c74 3 67 -14 67 161
l0 157 -46 0 c-25 0 -48 -3 -52 -7z"/>
<path d="M3450 2920 l0 -105 45 -1 c55 -2 57 4 53 126 l-3 85 -47 0 -48 1 0
-106z"/>
<path d="M3448 2530 l4 -70 49 0 48 0 0 70 -1 70 -51 0 -52 0 3 -70z"/>
<path d="M3450 1566 l0 -53 48 1 47 2 2 52 1 52 -49 0 -49 0 0 -54z"/>
</g>
</svg>
