<?xml version="1.0" standalone="no"?>
<!DOCTYPE svg PUBLIC "-//W3C//DTD SVG 20010904//EN"
 "http://www.w3.org/TR/2001/REC-SVG-20010904/DTD/svg10.dtd">
<svg version="1.0" xmlns="http://www.w3.org/2000/svg"
 width="672.000000pt" height="672.000000pt" viewBox="0 0 672.000000 672.000000"
 preserveAspectRatio="xMidYMid meet">
<metadata>
Created by potrace 1.11, written by Peter Selinger 2001-2013
</metadata>
<g transform="translate(0.000000,672.000000) scale(0.100000,-0.100000)"
fill="#000000" stroke="none">
<path d="M595 6216 c-18 -21 -186 -199 -360 -381 -33 -34 -100 -104 -148 -155
l-88 -93 58 -60 c98 -102 123 -128 268 -281 77 -82 165 -174 195 -205 105
-110 104 -109 90 -126 -7 -8 -9 -15 -5 -15 4 0 1 -10 -8 -23 -14 -22 -102
-266 -111 -310 -3 -12 -12 -47 -21 -77 -9 -30 -17 -62 -19 -70 -6 -24 -37
-173 -41 -195 -6 -35 -16 -99 -21 -135 -2 -19 -6 -49 -9 -66 -22 -147 -23
-606 -1 -719 2 -11 7 -45 11 -75 3 -30 9 -68 12 -85 3 -16 7 -39 8 -50 2 -11
8 -40 14 -65 5 -25 12 -58 15 -75 3 -16 15 -64 26 -105 12 -41 25 -91 30 -111
11 -43 79 -231 115 -318 63 -153 251 -499 277 -509 4 -2 8 -8 8 -14 0 -8 99
-147 142 -199 9 -11 31 -39 50 -61 72 -90 207 -231 309 -323 88 -79 109 -96
199 -165 47 -36 87 -67 90 -70 3 -3 12 -9 21 -15 10 -5 39 -25 65 -44 138 -97
350 -213 519 -286 61 -25 124 -53 142 -61 17 -8 35 -14 41 -14 5 0 31 -8 58
-19 52 -20 112 -39 141 -46 10 -3 52 -14 93 -26 41 -11 107 -27 145 -34 39 -8
84 -16 100 -19 68 -13 158 -25 221 -30 22 -1 45 -5 50 -8 12 -7 625 -3 682 5
43 5 110 16 147 23 11 2 45 8 75 14 85 16 92 17 140 30 25 7 54 14 65 16 33 6
309 96 320 104 6 4 21 11 33 15 13 4 45 16 70 28 26 12 49 22 52 23 31 9 90
39 90 46 0 4 7 8 15 8 15 0 47 16 75 36 8 7 26 15 40 19 14 4 27 11 30 15 3 3
31 22 64 41 107 63 121 71 126 78 3 3 34 26 70 51 36 24 70 48 75 52 106 83
182 147 220 183 17 16 52 48 76 71 57 53 179 184 227 243 20 25 43 52 51 60 7
8 39 49 70 90 31 42 58 78 61 81 8 7 123 187 151 235 84 147 182 359 234 505
33 94 94 305 100 345 2 17 4 30 5 30 2 0 7 24 15 69 4 21 9 48 11 60 43 223
51 606 18 876 -3 25 -7 63 -9 85 -5 56 -13 120 -27 190 -6 33 -12 71 -13 85
-5 48 -67 276 -107 395 -77 230 -171 432 -290 625 -39 64 -139 213 -147 220
-3 3 -19 23 -36 45 -110 149 -441 495 -475 495 -4 0 -20 -16 -36 -36 -16 -20
-34 -41 -39 -48 -6 -6 -40 -47 -75 -91 -75 -93 -89 -110 -112 -136 -18 -22
-54 -67 -116 -144 -22 -27 -108 -133 -191 -234 l-150 -184 22 -19 c79 -68 215
-209 267 -277 14 -18 42 -54 63 -81 20 -26 37 -50 37 -53 0 -3 18 -31 39 -63
68 -102 154 -282 194 -405 49 -151 73 -257 83 -359 3 -30 7 -66 10 -80 10 -59
2 -384 -11 -450 -5 -26 -16 -98 -21 -140 -1 -14 -3 -25 -4 -25 -1 0 -3 -7 -5
-15 -2 -8 -6 -26 -9 -40 -25 -119 -74 -269 -118 -370 -45 -103 -132 -270 -140
-270 -4 0 -7 -3 -6 -8 3 -10 -83 -140 -139 -210 -104 -129 -290 -297 -446
-402 -121 -81 -369 -204 -457 -225 -8 -2 -16 -4 -17 -5 -2 -2 -6 -3 -10 -5 -5
-1 -15 -4 -23 -8 -8 -3 -46 -13 -85 -22 -38 -9 -81 -19 -95 -22 -14 -4 -29 -8
-35 -8 -5 -1 -37 -5 -70 -9 -33 -4 -71 -10 -85 -12 -31 -5 -344 -5 -385 1 -16
2 -57 7 -90 11 -33 3 -69 8 -80 11 -11 2 -42 8 -70 13 -86 16 -227 52 -270 69
-11 5 -69 28 -130 52 -128 50 -224 99 -350 177 -107 67 -89 54 -200 146 -49
40 -121 108 -160 151 -38 42 -79 87 -90 99 -11 12 -24 29 -30 38 -5 8 -35 50
-65 92 -30 42 -66 96 -79 119 -13 23 -34 61 -48 85 -14 23 -21 42 -16 42 4 0
3 4 -2 8 -31 23 -120 265 -156 425 -36 162 -43 238 -42 437 0 91 3 185 6 210
16 125 19 145 22 149 4 4 85 -78 228 -231 38 -40 127 -134 198 -210 129 -135
130 -136 162 -126 18 5 37 10 42 12 19 4 250 77 310 98 33 11 71 22 84 24 13
3 31 9 40 13 9 5 18 9 21 8 5 0 74 20 100 30 8 3 21 7 28 9 7 1 59 17 115 35
103 33 115 37 142 42 8 2 18 7 22 11 4 4 8 586 9 1292 l0 1284 -1225 -1 -1226
0 -20 -23z"/>
</g>
</svg>
