<?xml version="1.0" standalone="no"?>
<!DOCTYPE svg PUBLIC "-//W3C//DTD SVG 20010904//EN"
 "http://www.w3.org/TR/2001/REC-SVG-20010904/DTD/svg10.dtd">
<svg version="1.0" xmlns="http://www.w3.org/2000/svg"
 width="816.000000pt" height="816.000000pt" viewBox="0 0 816.000000 816.000000"
 preserveAspectRatio="xMidYMid meet">
<metadata>
Created by potrace 1.11, written by Peter Selinger 2001-2013
</metadata>
<g transform="translate(0.000000,816.000000) scale(0.100000,-0.100000)"
fill="#000000" stroke="none">
<path d="M4129 8138 c0 -13 -1 -232 -1 -487 l0 -464 -38 -81 c-43 -94 -61
-132 -125 -276 -26 -58 -57 -127 -70 -155 -58 -128 -82 -182 -133 -295 -8 -19
-17 -42 -18 -50 -2 -8 -8 -16 -13 -18 -6 -2 -11 -10 -11 -17 0 -7 -20 -55 -44
-106 -24 -52 -58 -128 -76 -169 -18 -41 -47 -106 -65 -145 -18 -38 -47 -104
-65 -145 -18 -41 -36 -79 -41 -84 -5 -6 -9 -18 -9 -28 0 -10 -5 -18 -10 -18
-6 0 -9 -3 -8 -7 3 -12 -25 -83 -33 -83 -4 0 -10 -11 -13 -24 -3 -14 -19 -53
-35 -88 -16 -35 -71 -155 -121 -268 -51 -113 -110 -243 -131 -288 -21 -46 -39
-85 -39 -87 0 -2 -16 -38 -36 -82 -20 -43 -42 -91 -49 -108 -7 -16 -28 -61
-46 -100 -18 -38 -33 -74 -35 -80 -1 -5 -22 -54 -48 -108 -25 -54 -46 -100
-46 -102 0 -1 -17 -41 -39 -87 -21 -45 -49 -105 -62 -133 -13 -27 -23 -52 -24
-55 0 -3 -8 -21 -17 -40 -19 -41 -70 -152 -94 -207 -9 -21 -16 -41 -16 -45 1
-5 -3 -8 -10 -8 -6 0 -8 -3 -5 -6 4 -4 -2 -23 -13 -43 -10 -20 -25 -52 -34
-71 -8 -19 -33 -75 -56 -125 -23 -49 -43 -94 -44 -100 -1 -5 -12 -29 -24 -51
-11 -23 -18 -44 -15 -48 4 -3 1 -6 -5 -6 -7 0 -12 -4 -12 -9 0 -5 -14 -40 -31
-78 -67 -149 -118 -262 -135 -302 -9 -20 -20 -43 -25 -51 -5 -8 -12 -22 -15
-30 -10 -26 -66 -153 -99 -225 -18 -38 -47 -104 -65 -145 -18 -41 -50 -113
-71 -158 -22 -46 -39 -85 -39 -87 0 -2 -17 -41 -39 -87 -21 -45 -56 -123 -79
-173 -53 -120 -89 -199 -118 -261 -13 -28 -24 -53 -24 -56 0 -4 -18 -45 -41
-92 -22 -47 -39 -87 -39 -88 1 -2 -9 -25 -23 -53 -14 -27 -32 -68 -42 -90 -9
-22 -21 -47 -26 -55 -5 -8 -12 -22 -15 -30 -3 -8 -21 -49 -40 -90 -19 -42 -34
-81 -34 -88 0 -7 -4 -12 -10 -12 -5 0 -10 -6 -10 -14 0 -14 -34 -92 -106 -243
-19 -39 -34 -74 -34 -77 0 -2 -17 -40 -37 -83 -20 -43 -37 -80 -38 -83 -6 -20
-27 -68 -35 -80 -6 -8 -13 -22 -16 -30 -3 -8 -24 -55 -46 -105 -22 -50 -47
-106 -56 -125 -8 -19 -17 -38 -19 -43 -4 -7 31 -5 197 8 96 7 205 15 290 20
41 3 116 8 165 11 50 3 108 7 130 9 53 3 322 18 362 19 18 1 35 5 39 8 4 4 14
3 24 -2 10 -5 19 -7 21 -5 6 6 132 14 304 20 83 3 191 8 240 10 89 5 301 12
565 19 74 3 290 7 479 10 190 4 347 8 349 11 3 2 12 0 22 -5 10 -5 20 -7 23
-4 3 4 92 6 196 7 168 0 191 2 192 16 0 22 0 7961 0 7984 -1 15 -16 17 -181
17 -180 0 -180 0 -181 -22z"/>
<path d="M4795 2778 l0 -2633 50 -1 c28 -1 57 -5 66 -9 10 -3 20 -1 24 4 3 6
11 9 16 5 6 -3 86 -8 177 -10 238 -5 624 -19 842 -29 264 -12 319 -15 400 -21
47 -3 110 -7 140 -9 248 -16 347 -23 425 -30 22 -2 72 -6 110 -9 39 -3 93 -8
120 -12 68 -8 86 -7 98 5 8 8 7 11 -1 11 -7 0 -12 5 -12 11 0 6 -18 49 -40 95
-22 47 -40 86 -40 89 0 2 -21 48 -46 102 -44 95 -74 159 -107 233 -19 43 -76
167 -128 278 -21 46 -39 85 -39 87 0 1 -20 45 -44 96 -24 52 -56 121 -71 154
-33 73 -117 257 -157 345 -17 36 -40 88 -53 115 -12 28 -37 82 -55 120 -17 39
-40 88 -50 110 -10 22 -39 84 -64 138 -25 55 -46 101 -46 103 0 3 -16 36 -35
74 -19 39 -34 73 -35 75 0 3 -19 43 -40 91 -22 47 -46 100 -54 117 -8 18 -26
59 -42 92 -68 150 -97 213 -114 250 -25 53 -82 178 -110 240 -13 28 -50 109
-83 180 -32 72 -93 204 -134 295 -41 91 -94 207 -119 259 -24 51 -44 95 -44
96 0 2 -18 43 -41 92 -23 48 -97 211 -165 361 -68 150 -129 280 -134 290 -5 9
-19 40 -31 67 -34 77 -107 238 -166 365 -20 41 -43 93 -53 115 -10 22 -31 69
-47 105 -17 36 -37 80 -44 98 -8 17 -16 32 -19 32 -3 0 -6 -1185 -5 -2632z"/>
</g>
</svg>
