<?xml version="1.0" encoding="utf-8"?>
<!-- Generator: Adobe Illustrator 19.2.0, SVG Export Plug-In . SVG Version: 6.00 Build 0)  -->
<svg version="1.1" id="Layer_1" xmlns="http://www.w3.org/2000/svg" xmlns:xlink="http://www.w3.org/1999/xlink" x="0px" y="0px"
	 viewBox="0 0 69.9 26.8" style="enable-background:new 0 0 69.9 26.8;" xml:space="preserve">
<path d="M20.9,5.1l-2.2,2.7c1.3,1.1,2.1,2.6,2.2,4.2c0.1,1.7-0.4,3.3-1.4,4.6c-1.1,1.3-2.6,2.1-4.2,2.2c-1.7,0.1-3.3-0.4-4.6-1.4
	c-1.8-1.5-2.5-3.7-2.1-5.8l1.7,1.8l2.9-0.9V4.6H5.7l-1.9,2l1.9,2C4,12.5,5,17.2,8.4,20c1.8,1.5,4,2.3,6.2,2.3c0.3,0,0.6,0,0.9,0
	c2.6-0.2,4.9-1.4,6.6-3.4s2.5-4.5,2.2-7.1C24.1,9.1,22.9,6.8,20.9,5.1z"/>
<path d="M30.1,5.1l2.2,2.7c-1.3,1.1-2.1,2.6-2.2,4.2c-0.1,1.7,0.4,3.3,1.4,4.6c1.1,1.3,2.6,2.1,4.2,2.2c1.7,0.1,3.3-0.4,4.6-1.4
	c1.8-1.5,2.5-3.7,2.1-5.8l-1.6,1.8l-2.9-0.9V4.6h7.4l1.9,2l-1.9,2C47,12.5,46,17.1,42.7,20c-1.8,1.5-4,2.3-6.2,2.3
	c-0.3,0-0.6,0-0.9,0c-2.6-0.2-4.9-1.4-6.6-3.4s-2.5-4.5-2.2-7.1C26.9,9.1,28.1,6.8,30.1,5.1z"/>
<path d="M49,20.3l2.7-2.2c1.1,1.3,2.6,2.1,4.2,2.2c1.7,0.1,3.3-0.4,4.6-1.4c1.3-1.1,2.1-2.6,2.2-4.2c0.1-1.7-0.4-3.3-1.4-4.6
	c-1.5-1.8-3.7-2.5-5.8-2.1l1.8,1.7l-0.9,2.9h-7.8V5.1l2-1.9l2,1.9c3.9-1.7,8.5-0.7,11.4,2.6c1.5,1.8,2.3,4,2.3,6.2
	c0,0.3,0,0.6,0,0.9c-0.2,2.6-1.4,4.9-3.4,6.6c-2,1.7-4.5,2.5-7.1,2.2C53.1,23.5,50.7,22.3,49,20.3z"/>
</svg>
