<?xml version="1.0" encoding="utf-8"?>
<!-- Generator: Adobe Illustrator 18.0.0, SVG Export Plug-In . SVG Version: 6.00 Build 0)  -->
<!DOCTYPE svg PUBLIC "-//W3C//DTD SVG 1.1//EN" "http://www.w3.org/Graphics/SVG/1.1/DTD/svg11.dtd">
<svg version="1.1" id="Capa_1" xmlns="http://www.w3.org/2000/svg" xmlns:xlink="http://www.w3.org/1999/xlink" x="0px" y="0px"
	 viewBox="18.2 636.9 2040.9 3779.7" enable-background="new 18.2 636.9 2040.9 3779.7" xml:space="preserve">
<g>
	<path fill="#FFFFFF" d="M1984.5,636.9h-490.6c-549.5,0-906.6,365-906.6,930.2v427.8H96.7c-43.2,0-78.5,35.3-78.5,78.5v620.1
		c0,43.2,35.3,78.5,78.5,78.5h490.6v1566c0,43.2,35.3,78.5,78.5,78.5h643.7c43.2,0,78.5-35.3,78.5-78.5v-1570h577
		c43.2,0,78.5-35.3,78.5-78.5v-620.1c0-19.6-7.8-39.2-23.5-54.9c-15.7-15.7-35.3-23.5-54.9-23.5H1384v-361.1
		c0-172.7,43.2-263,266.9-263h329.7c43.2,0,78.5-35.3,78.5-78.5v-573C2059.1,672.3,2027.7,636.9,1984.5,636.9z"/>
</g>
</svg>
