<?xml version="1.0" encoding="utf-8"?>
<!-- Generator: Adobe Illustrator 18.0.0, SVG Export Plug-In . SVG Version: 6.00 Build 0)  -->
<!DOCTYPE svg PUBLIC "-//W3C//DTD SVG 1.1//EN" "http://www.w3.org/Graphics/SVG/1.1/DTD/svg11.dtd">
<svg version="1.1" id="Capa_1" xmlns="http://www.w3.org/2000/svg" xmlns:xlink="http://www.w3.org/1999/xlink" x="0px" y="0px"
	 viewBox="-0.9 1473.1 2045.3 2101.7" enable-background="new -0.9 1473.1 2045.3 2101.7" xml:space="preserve">
<g>
	<g>
		<path fill="#FFFFFF" d="M1330.8,1473.1h-501c-223.4,0-377.4,49.9-516.2,164.8c-108.4,95.4-175.7,232.1-175.7,366.5
			c0,208.2,158.3,429.4,453.3,429.4c28.2,0,60.7-2.2,86.8-6.5l-4.3,10.8c-10.8,28.2-23.9,54.2-23.9,97.6c0,82.4,39,132.3,78.1,180
			l4.3,6.5h-8.7c-121.5,8.7-347,23.9-514,125.8C14.3,2965.3-0.9,3132.3-0.9,3182.2c0,195.2,182.2,392.6,587.8,392.6
			c472.8,0,717.9-260.3,717.9-518.4c0-190.9-110.6-284.1-229.9-383.9l-99.8-78.1c-30.4-26-69.4-56.4-69.4-117.1
			c0-58.6,39-95.4,71.6-130.1l4.3-4.3c108.4-84.6,229.9-182.2,229.9-390.4c0-210.4-130.1-316.7-193-368.7h169.2c2.2,0,4.3,0,6.5-2.2
			l143.1-91.1c4.3-2.2,6.5-6.5,4.3-13C1339.5,1475.3,1335.2,1473.1,1330.8,1473.1z M723.5,3457.6c-288.5,0-481.5-134.5-481.5-334
			c0-130.1,78.1-225.6,234.2-282c123.6-41.2,286.3-43.4,286.3-43.4c28.2,0,41.2,0,62.9,2.2c201.7,143.1,297.1,219.1,297.1,362.2
			C1124.8,3344.9,970.8,3457.6,723.5,3457.6z M721.4,2358c-240.7,0-342.7-316.7-342.7-488c0-86.8,19.5-151.8,60.7-203.9
			c43.4-54.2,119.3-91.1,190.9-91.1c221.2,0,344.9,297.1,344.9,503.2c0,32.5,0,132.3-67.2,199.5C860.2,2325.5,786.4,2358,721.4,2358
			z"/>
		<path fill="#FFFFFF" d="M2033.6,2453.4H1769V2191c0-6.5-4.3-10.8-10.8-10.8h-112.8c-6.5,0-10.8,4.3-10.8,10.8v262.4H1372
			c-6.5,0-10.8,4.3-10.8,10.8v115c0,6.5,4.3,10.8,10.8,10.8h262.4v264.6c0,6.5,4.3,10.8,10.8,10.8h112.8c6.5,0,10.8-4.3,10.8-10.8
			v-264.6h264.6c6.5,0,10.8-4.3,10.8-10.8v-115C2044.4,2457.8,2040.1,2453.4,2033.6,2453.4z"/>
	</g>
</g>
</svg>
