<?xml version="1.0" encoding="utf-8"?>
<!-- Generator: Adobe Illustrator 18.0.0, SVG Export Plug-In . SVG Version: 6.00 Build 0)  -->
<!DOCTYPE svg PUBLIC "-//W3C//DTD SVG 1.1//EN" "http://www.w3.org/Graphics/SVG/1.1/DTD/svg11.dtd">
<svg version="1.1" id="Capa_1" xmlns="http://www.w3.org/2000/svg" xmlns:xlink="http://www.w3.org/1999/xlink" x="0px" y="0px"
	 viewBox="0 1727.8 2040.9 1657.7" enable-background="new 0 1727.8 2040.9 1657.7" xml:space="preserve">
<g>
	<g>
		<path fill="#FFFFFF" d="M2040.9,1923.9c-74.8,33.4-155.9,56.1-240.4,65.8c86.7-51.6,152.5-133.8,184.3-231.3
			c-81.1,48.2-170.6,82.8-265.9,101.5c-76.5-81.6-184.8-132.1-305.6-132.1c-231.3,0-419,187.7-419,418.4c0,32.9,4,64.6,10.8,95.2
			c-348.1-17-656.5-183.7-862.9-437.1c-36.3,61.8-56.7,133.8-56.7,210.3c0,145.1,73.7,273.3,186,348.7
			c-68.6-2.3-133.2-21-189.9-52.7v5.1c0,203,144.6,371.9,335.6,410.5c-35.1,9.6-72,14.7-110.6,14.7c-27.2,0-53.3-2.8-78.8-7.9
			c53.3,166.7,208.1,287.4,391.2,290.8C476.8,3136,295.9,3202.9,99.8,3202.9c-34,0-66.9-2.3-99.8-5.7
			c185.4,119.1,405.4,188.2,641.8,188.2c770.5,0,1191.1-637.8,1191.1-1191.1l-1.1-54.4C1913.9,2081.5,1984.8,2007.8,2040.9,1923.9z"
			/>
	</g>
</g>
</svg>
