<?xml version="1.0" encoding="utf-8"?>
<!-- Generator: Adobe Illustrator 18.0.0, SVG Export Plug-In . SVG Version: 6.00 Build 0)  -->
<!DOCTYPE svg PUBLIC "-//W3C//DTD SVG 1.1//EN" "http://www.w3.org/Graphics/SVG/1.1/DTD/svg11.dtd">
<svg version="1.1" id="Layer_1" xmlns="http://www.w3.org/2000/svg" xmlns:xlink="http://www.w3.org/1999/xlink" x="0px" y="0px"
	 viewBox="0 0 433.6 66.8" enable-background="new 0 0 433.6 66.8" xml:space="preserve">
<g id="g4" transform="matrix(0.45532286,0,0,0.45532286,-0.08469005,-0.02823002)">
	<path id="path6" fill="#9A1B34" d="M177.1,131.1L92,90.2l-2.8-2.7l1.3-81.7L92,0.1 M183.8,146.8L92,108l-2.8,4.3v34.5H183.8z"/>
	<polyline id="polyline8" fill="#E01E34" points="6.9,131.1 92,0.1 92,90.2 	"/>
	<polyline id="polyline10" fill="#E01E34" points="0.2,146.8 92,146.8 92,108 	"/>
	<path id="path14" fill="#1C3665" d="M255.5,131.1h41.3c42.4,0,67.8-22,67.8-58.4c0-36.5-25.3-58.4-67.8-58.4h-41.3 M281.6,34.5
		h15.2c27.5,0,41.3,13.6,41.3,38.1c0,24.5-13.8,38.1-41.3,38.1h-15.2V34.5z"/>
	<polyline id="polyline16" fill="#1C3665" points="453.2,80.4 502.8,80.4 502.8,60.1 453.2,60.1 453.2,34.5 509.3,34.5 509.3,14.2 
		427.1,14.2 427.1,131.1 511.1,131.1 511.1,110.8 453.2,110.8 	"/>
	<polyline id="polyline18" fill="#1C3665" points="659.9,110.8 609.5,110.8 609.5,14.2 583.3,14.2 583.3,131.1 659.9,131.1 	"/>
	<polyline id="polyline20" fill="#1C3665" points="800.8,14.2 695.9,14.2 695.9,34.5 735.3,34.5 735.3,131.1 761.5,131.1 
		761.5,34.5 800.8,34.5 	"/>
	<path id="path22" fill="#1C3665" d="M952.5,131.1h-27.3l-11.5-29.3h-47.6l-11.4,29.3h-25.5l48.9-117.4h26.4 M906.3,82.3L890,40.8
		l-16.4,41.5H906.3z"/>
</g>
</svg>
