<?xml version="1.0" encoding="utf-8"?>
<!-- Generator: Adobe Illustrator 18.0.0, SVG Export Plug-In . SVG Version: 6.00 Build 0)  -->
<!DOCTYPE svg PUBLIC "-//W3C//DTD SVG 1.1//EN" "http://www.w3.org/Graphics/SVG/1.1/DTD/svg11.dtd">
<svg version="1.1" id="Layer_1" xmlns="http://www.w3.org/2000/svg" xmlns:xlink="http://www.w3.org/1999/xlink" x="0px" y="0px"
	 viewBox="-95 -21.3 200 52.7" enable-background="new -95 -21.3 200 52.7" xml:space="preserve">
<g>
	<path fill="#FFFFFF" d="M-50.1-18.1c-1.9-1.6-3.3-2-5.8-2h-37.6l24.7,48.2c0.9,1.9,2.2,2.6,4,2.6h32.1c1.5,0,2.4-0.8,3-2.1l4.4-9.8
		l5.2-11.7L-50.1-18.1z"/>
	<path fill="#DF173B" d="M-50-19.3c-1.9-1.6-3.5-2.1-6-2.1h-39l25.5,49.9c1,1.9,2.3,2.7,4.1,2.7h33.3c1.5,0,2.5-0.8,3.1-2.2
		l4.6-10.2L-19,6.9L-50-19.3z M-43.6-5.4c0.3,0,0.5-0.1,0.8,0c0.4,0,0.4,0.6,0.3,0.8c-0.2,0.4-0.7,1-1,1.2c-0.2,0.1-0.4,0-0.6,0
		c-0.3,0-0.5-0.3-0.6-0.5c0.1,0.3-0.2-0.5,0,0C-44.9-4.4-44.1-5.4-43.6-5.4z M-46,5.3c0-0.5,0.1-1,0.2-1.6c0-0.9,0.2-1.7,0.2-2.5
		c0-0.5,0.1-1.1,0.4-1.5c0.2-0.4,0.4-0.7,0.8-0.9c0.2-0.1,0.4-0.1,0.6-0.1c0.4,0,0.1,0.3,0.3,0.5c0,0,0,0,0.1,0c0,0.1,0,0.1,0,0.2
		c0.2,0,0,0.3,0,0.4c0,0.3,0,0.6-0.1,0.9c0,0,0.1,0,0.1,0c0,0,0,0.1,0,0.1c-0.1,0.1-0.1,0.1-0.1,0.3c0,0.1,0.1,0.4,0,0.4
		c0,0,0,0.3,0,0.4c0,0.1,0,0.6,0,0.6c0,0,0,0,0.1,0c0,0,0,0.7,0,0.7c-0.1,0.1-0.2,0.2-0.1,0.3c0,0,0.2,0.4,0.1,0.4
		c0,0-0.1-0.1-0.1-0.1c-0.1,0,0.1,0.3,0.1,0.3c0,0.1-0.2-0.2-0.2,0c0,0.2,0,0.4,0,0.6c0,0.2,0,0.3,0,0.5c0,0.3,0.1,0.7,0,0.9
		c-0.3,0.6-1.7,1.6-2.2,0.7c0.1,0.1,0.1,0.3,0,0c0-0.1,0-0.1,0,0C-46.2,6.2-46,5.7-46,5.3z M-56.7,4.6c0-0.1,0.7-0.3,0.8-0.4
		c0.1,0,0.3,0,0.5,0c0.3,0.1,0.3,0.2,0.4,0.4C-55,4.9-55,5-55,5.3c-0.1,0.3-0.1,0.5-0.4,0.6c-0.3,0.2-0.6,0.5-0.8,0.7
		c-0.3,0.2-0.5,0.5-0.7,0.8C-57,7.5-57,7.7-57,7.9c-0.2,0.4-0.2,0.8-0.2,1.3c-0.1,0.9,0,1.9-0.1,2.8c-0.1,0.7-0.9,1.7-1.7,1.6
		c-0.7,0-0.7-0.8-0.6-1.3c0-0.3,0.1-0.6,0.1-0.8c0-0.3,0-0.5,0-0.8c0-0.2-0.1-0.4,0-0.6c0-0.1,0-0.2,0-0.3c0.1-0.4,0.1-0.8,0.1-1.1
		c0.1-0.8,0-1.7,0.2-2.5c0.1-0.4,0.4-0.6,0.7-0.9c0.1-0.1,0.6-0.1,0.7-0.3C-57.5,5-57,4.7-56.7,4.6C-56.7,4.6-56.7,4.5-56.7,4.6z
		 M-65.9,9.9c0,0.2-0.1,0.3-0.1,0.5c0,0.2,0,0.3,0,0.5c-0.1,0.2-0.1,0.3-0.1,0.4c0,0.3-0.1,0.7-0.2,1c0,0.1-0.1,0.3,0,0.4
		c0.1,0.1,0.1,0.2,0.1,0.3c-0.1,0.4-0.3,0.7-0.3,1.1c0,0.2-0.2,0.7-0.1,0.9c0.1,0.2-0.1,0.6-0.2,0.8c-0.2,0.5-0.3,1.2-0.3,1.8
		c0,0.7-0.2,1.4-0.3,2.1c-0.1,0.9-0.1,2-0.4,2.9c-0.1,0.4-0.2,0.8-0.6,1c-0.3,0.2-0.9,0.2-1.2-0.1c-0.4-0.5-0.4-1.2-0.6-1.8
		c-0.2-0.7-0.2-1.5-0.4-2.3c-0.1-0.3,0-0.7-0.2-1c-0.1-0.1-0.1-0.5-0.1-0.6c0-0.2,0-0.4,0-0.6c0-0.2-0.1-0.4-0.1-0.6
		c-0.2-0.7-0.3-1.4-0.3-2.1c-0.1-0.7-0.2-1.3-0.3-2c-0.1-0.8-0.2-1.5-0.3-2.3c-0.1-0.6-0.1-1.3-0.3-1.9c-0.1-0.2-0.2-0.3-0.2-0.5
		c0-0.1,0.1-0.3,0.1-0.3c-0.1-0.1-0.2,0-0.2-0.1c0-0.6-0.6,0.2-0.6,0.4c-0.2-0.1-0.1,0.2-0.1,0.3c0,0.2-0.2,0.3-0.2,0.5
		c-0.2,0.5-0.3,1.2-0.5,1.7c-0.2,0.5-0.4,1-0.8,1.3c-0.4,0.3-1.1,0.2-1.3-0.3c-0.3-0.5,0.1-1.1,0.3-1.6c0.2-0.6,0.3-1.2,0.6-1.8
		c0.3-0.6,0.4-1.2,0.6-1.8c0.3-1,0.7-2.1,1-3.1c0.3-0.9,0.8-2.2,2-1.6c0.6,0.3,0.6,0.9,0.7,1.5c0.1,0.7,0.2,1.3,0.3,2
		c0.2,0.9,0.3,1.6,0.4,2.5c0,0.4,0.2,0.8,0.3,1.1c0.1,0.3,0.1,0.7,0.2,0.9c0.1,0.2,0,0.4,0.1,0.6c0.1,0.3,0.1,0.6,0.2,0.9
		c0.1,0.3-0.1,0.7,0,1c0.1,0.3,0.3,0.6,0.2,0.9c-0.1,0.3,0.1,0.5,0.1,0.8c0,0.2,0.2,0.4,0.1,0.6c-0.1,0.2,0.2,0.3,0.3,0
		c0-0.2,0.1-0.4,0.1-0.6c0-0.6,0.1-1.2,0.2-1.8c0.3-1.6,0.5-3.2,0.8-4.8c0.6-3.1,1.5-6,2.3-9.1c0.2-0.7,0.5-1.3,0.7-1.9
		c0.2-0.8,0.5-1.5,0.8-2.3c0.6-1.6,1.2-3.2,1.8-4.8c0.4-1.1,1-2.6,2.4-2.6c1.2-0.1,2.1,1.2,1.7,2.3c-0.1,0.3-0.3,0.5-0.5,0.7
		c0,0.1,0,0.2,0,0.2c0,0.2-0.1,0.1-0.2,0.2c-0.4,0.4-0.9,0.8-1.2,1.3c-0.7,1.1-1.1,2.3-1.6,3.4c-0.2,0.3-0.2,0.7-0.3,1
		c-0.1,0.3-0.3,0.5-0.4,0.8c-0.2,0.7-0.5,1.3-0.7,1.9C-63-1.2-63-0.8-63.2-0.4c-0.1,0.1,0,0.3-0.1,0.4c-0.1,0.1-0.1,0.2-0.2,0.3
		c-0.2,0.6-0.4,1.2-0.5,1.9c0,0.4-0.1,0.5-0.3,0.8c-0.1,0.2-0.2,0.5-0.3,0.8c-0.3,0.6-0.5,1.3-0.7,2c-0.1,0.3-0.1,0.7-0.2,1.1
		c-0.1,0.3-0.2,0.6-0.2,0.9c0,0.3-0.1,0.5-0.2,0.8c-0.1,0.3,0,0.5-0.1,0.8c0,0,0,0,0,0.1C-66,9.6-65.9,9.8-65.9,9.9z M-61.2,8.2
		c0.1,0.3-0.1,0.8-0.1,1.1c0,0.4-0.1,0.7-0.1,1.1c0,0.4-0.1,0.9-0.2,1.3c-0.1,0.4-0.1,0.8-0.1,1.3c0,0.4,0,0.8-0.1,1.2
		c-0.1,0.2-0.2,0.5-0.2,0.8c0,0.1,0.1,0,0.1,0c0.1,0-0.1,0.4-0.2,0.1c0,0,0,0.1-0.1,0.2c-0.1,0.1-0.2,0-0.3,0.2
		c-0.2,0.2-0.6,0.4-0.8,0.5c-0.8,0.4-0.8-0.7-0.8-1.2c0-1.1,0.2-2.2,0.2-3.2c0-0.3,0.1-0.6,0.1-0.8c0-0.3,0-0.5,0-0.7
		c0-0.5,0.1-1.3,0.3-1.7c0.3-0.7,0.7-1.2,1.4-1.5c0.2-0.1,0.6-0.1,0.7,0.2c0.1,0.1,0.1,0.7,0.3,0.7c0,0,0,0,0,0c0,0-0.1,0-0.2,0.1
		C-61.4,7.9-61.3,8-61.2,8.2z M-61.8,4.1c-0.1,0-0.6,0.1-0.6-0.1c0-0.1-0.2-0.2-0.2-0.4c0-0.2,0-0.4,0.1-0.5
		c0.2-0.5,0.5-0.6,0.8-0.9c0.2-0.2,0.8-0.5,1.1-0.3c0.2,0.1,0.4,0.6,0.3,0.8c0,0,0.1-0.2,0,0c-0.1,0.2-0.1,0.4-0.2,0.5
		c-0.2,0.2-0.4,0.4-0.6,0.6C-61.3,3.8-61.5,4-61.8,4.1z M-30.8,3.4c-0.6,0.4-1.3,0.6-1.9,0.8c-1.5,0.5-2.8,1.1-4.2,1.8
		c-1.4,0.7-2.8,1.4-4.1,2.2c-1.2,0.7-2.5,1.5-3.7,2.2c-0.5,0.3-1,0.7-1.5,1c-0.3,0.2-0.6,0.4-0.9,0.6c-0.2,0.2-0.6,0.4-0.8,0.6
		c-0.4,0.4,0,1-0.2,1.4c-0.1,0.1,0,0.1,0,0.2c0.1,0.1,0,0.2-0.1,0.3c-0.1,0.2,0,0.7,0,1c0,0.2,0,0.5,0,0.7c0,0.2-0.1,0.5,0,0.7
		c0,0.3-0.1,0.6-0.1,0.9c0,0.3,0,0.6,0,1c0,0.2,0,0.3,0.1,0.5c-0.1,0.1-0.1,0.1-0.2,0.2c-0.1,0.2,0.1,0.2,0.1,0.4
		c0,0-0.1,0.1-0.1,0.1c0.1,0.2,0.2,0.3,0.1,0.5c-0.1,0.1-0.1,0.2,0,0.4c0,0.1,0.2,0.2,0.1,0.3c0,0.1-0.1,0.2-0.1,0.2
		c-0.1,0.2,0.2,0.2,0,0.3c-0.1,0.1,0,0.2,0.1,0.2c0.1,0.1-0.1,0.2,0,0.3c0,0.3,0.2,0.6,0.2,0.9c0,0.3-0.3,0.6,0,0.8
		c0.2,0.1,0.3,1,0,0.8c0.2,0.1,0,0.3,0,0.4c0,0.2,0.4,0.1,0.4,0.4c0,0.1-0.1,0.2-0.2,0.2c0,0.1,0.1,0.2,0.1,0.3
		c0.1,0.1,0.2,0.3,0.1,0.5c0,0.1-0.1,0.1-0.1,0.2c0,0.2,0,0.1-0.1,0.3c-0.1,0.3-0.4,0.5-0.7,0.6c-0.6,0.2-1.4-0.1-1.7-0.7
		c-0.3-0.6-0.2-1.4-0.2-2c0-0.9,0.1-1.7,0.1-2.6c0-1.4,0.1-2.8,0-4.2c0-0.8,0-1.6,0-2.4c0-0.4,0-0.8,0-1.2c0-0.1,0.1-0.5-0.1-0.4
		c-0.6,0.2-1.2,0.9-1.8,1.3c-1.7,1.4-3.4,2.8-5.1,4.1c-0.6,0.4-1,0.9-1.5,1.4c-0.5,0.5-1.1,1-1.6,1.5c-0.5,0.5-0.9,1-1.4,1.5
		c-0.5,0.5-1,1.2-1.6,1.6c-0.2,0.2-0.4,0.4-0.6,0.6c-0.2,0.2-0.6,0.2-0.9,0.2c-0.6-0.1-1.1-0.6-1.1-1.2c0.1-0.6,0.5-1,0.9-1.4
		c0.6-0.6,1.1-1.1,1.7-1.7c2.3-2.1,4.7-4,7-6c1.2-1,2.5-1.9,3.8-2.8c0.6-0.5,1.3-1,1.9-1.4c0.4-0.3,0.3-0.8,0.3-1.2
		c0-0.3-0.6,0.1-0.8,0.3c-0.1,0.1-0.6,0.2-0.7,0.3c-0.4,0.1-0.8,0.2-1.2,0.2c-0.4,0-1.1-0.3-1.2-0.7c-0.1-0.3-0.3-0.7-0.3-1.1
		c0-0.4,0.1-0.7,0.1-1.1c0-0.3-0.1-0.6-0.1-0.9c0-0.4,0.1-0.7,0.1-1.1c0-0.7,0.1-1.4,0.4-2.1c0.4-1.1,1.2-2.2,2.4-2.7
		c0.5-0.2,1.1-0.1,1,0.6c-0.1,0.5-0.5,0.8-0.7,1.2c0,0.1-0.2,0.2-0.2,0.3c-0.1,0.1-0.1,0.3-0.2,0.4c-0.1,0.3-0.2,0.5-0.3,0.8
		c0,0.2-0.2,0.4-0.2,0.7c0,0.3,0,0.6,0,0.9c-0.1,0.6-0.4,1.8,0.2,2.3c0.4,0.3,0.9,0.1,1.2-0.2c0.4-0.4,0.6-0.9,0.6-1.4
		c0-0.9,0.3-1.7,0.3-2.6c0-0.9,0.1-1.7,0.2-2.6c0-0.7,0.3-1.4,1-1.6c0.7-0.2,1.2,0.3,1.2,1c0,1.2-0.2,2.4-0.3,3.6
		C-47.8,7-48,8.7-48,10.4c0.1,0.1,1.5-0.9,1.6-1c0.9-0.6,1.8-1.1,2.7-1.7c1.4-0.6,2.6-1.5,3.9-2.2c0.7-0.3,1.3-0.7,2-1.1
		c0.2-0.1,1.4-0.7,1.1-0.9c-0.5-0.3-0.4-1.1-0.4-1.6c0.1-0.7,0-1.3,0-2c0-0.6,0.6-2.7-0.7-2.4c-0.3,0.1-0.5,0.2-0.7,0.4
		c-0.2,0.2-0.2,0.5-0.5,0.5c-0.1,0.2,0,0.2-0.2,0.4c0.1,0.2-0.1,0.5-0.2,0.7c0,0.1,0,0.2-0.1,0.3c-0.1,0.1-0.1,0.1,0,0.2
		c0.2,0.2-0.2,0.1-0.1,0.3c0.1,0.3,0,0.3-0.1,0.6c-0.1,0.2,0.1,0.4,0.1,0.6c0,0-0.2,0-0.2,0c0,0.3-0.1,0.7,0,1
		c0,0.1,0.1,0.2,0.1,0.3c0,0.1-0.1,0.2-0.1,0.3c0,0.1,0.2,0.1,0.1,0.3c0,0.1-0.1,0.2-0.1,0.3c0,0.1,0,0.2,0,0.4
		c0,0.1-0.1,0.2-0.2,0.3c-0.1,0.2,0,0.3-0.3,0.5c-0.1,0.1-0.3,0.2-0.4,0.3c-0.3,0.2-0.9,0.3-1.2,0c-0.4-0.4-0.2-1.3-0.2-1.8
		c0.1-0.8,0.1-1.7,0.1-2.5c0.1-1.2-0.2-3,1.1-3.6c0.5-0.2,1-0.2,1.6-0.1c0.5,0.2,1-0.4,1.2-0.7c0.5-0.6,2.2-1.7,2.8-0.5
		c0.1,0.2,0.1,0.5,0.2,0.7c0,0.1,0.1,0.3,0.1,0.4C-34.9-3.2-35-3.1-35-3c0,0.1,0.3,0.9,0.1,1C-35-1.8-34.9-1.7-35-1.4
		c0,0.3-0.2,0.7,0,1c0.1,0.1,0,0.2,0,0.3c0,0.2,0.1,0.3,0.1,0.5c0,0.3,0.1,0.7-0.1,1c0,0.2,0.2,0.4,0.1,0.5
		c-0.1,0.1,0.2,0.4,0.3,0.5c0.3,0.4,1.4-0.3,1.7-0.5c0.6-0.3,1.2-0.7,1.9-0.7c0.7,0,0.8,0.2,1.1,0.9C-29.8,2.5-30.4,3.1-30.8,3.4z"
		/>
	<g>
		<rect x="65.4" y="10.5" fill="#FFFFFF" width="1.8" height="19"/>
		<rect x="65.4" y="5.8" fill="#FFFFFF" width="1.8" height="2.2"/>
		<path fill="#FFFFFF" d="M23.3,10.1c-3.6,0-5.6,2-6.8,4.1c-1-2.2-3.1-4.1-6.4-4.1c-3.4,0-5.1,1.9-6.3,3.8v-3.4H1.9v19h1.8V18.6
			c0-3.8,2.7-6.8,6.1-6.8s5.5,2.4,5.5,6.4v11.4h1.8V18.5c0-4.2,2.8-6.7,6-6.7c3.5,0,5.6,2.4,5.6,6.5v11.3h1.8V18
			C30.6,13.3,27.8,10.1,23.3,10.1z"/>
		<path fill="#FFFFFF" d="M41.7,10.1c-5.1,0-9,4.4-9,9.9v0.1C32.7,26,37,30,42,30c3.6,0,5.9-1.5,7.9-3.6l-1.3-1.1
			c-1.6,1.7-3.6,3-6.5,3c-3.7,0-7.1-2.8-7.4-7.5h15.7c0-0.3,0-0.4,0-0.7C50.4,14.4,47,10.1,41.7,10.1z M34.6,19.1
			c0.3-4.2,3.2-7.4,7-7.4c4.4,0,6.5,3.5,6.8,7.4H34.6z"/>
		<path fill="#FFFFFF" d="M54.4,15.9v-5.4h-1.8v19h1.8v-7.8c0-6.2,3.8-9.5,8.2-9.5h0.2v-2C59,10.1,55.9,12.5,54.4,15.9z"/>
		<path fill="#FFFFFF" d="M79.6,28.3c-4.4,0-7.8-3.6-7.8-8.2V20c0-4.5,3.3-8.1,7.7-8.1c2.8,0,4.7,1.5,6.3,3.1l1.3-1.3
			c-1.8-1.9-4-3.5-7.6-3.5c-5.4,0-9.7,4.6-9.7,9.9v0.1c0,5.3,4.2,9.9,9.7,9.9c3.5,0,5.8-1.6,7.7-3.8L86,25.1
			C84.4,26.9,82.3,28.3,79.6,28.3z"/>
		<path fill="#FFFFFF" d="M103.1,12.3c-1.4-1.4-3.4-2.1-6-2.1c-2.6,0-4.7,0.7-6.7,1.6l0.7,1.6c1.7-0.9,3.6-1.5,6-1.5
			c3.9,0,6.3,2,6.3,5.8h-6.3c-4.9,0-8.3,2.2-8.3,6.2V24c0,3.9,3.8,6,7.3,6c3.6,0,6-1.8,7.3-3.6v3.2h1.8V17.7
			C105,15.3,104.3,13.6,103.1,12.3z M103.3,22.4c0,3.5-3.3,5.8-7.2,5.8c-2.9,0-5.5-1.6-5.5-4.4v-0.1c0-2.6,2.2-4.4,6.3-4.4h6.4
			L103.3,22.4L103.3,22.4z"/>
		<path fill="#FFFFFF" d="M-8.7,10.2c-2.6,0-4.7,0.7-6.7,1.6l0.7,1.6c1.7-0.9,3.6-1.5,6-1.5c3.9,0,6.3,2,6.3,5.8h-6.3
			c-4.9,0-8.3,2.2-8.3,6.2V24c0,3.9,3.8,6,7.3,6c3.6,0,6-1.8,7.3-3.6v3.2h1.8V17.7c0-2.3-0.7-4.1-1.9-5.4
			C-4.1,10.9-6.1,10.2-8.7,10.2z M-2.5,22.4c0,3.5-3.3,5.8-7.2,5.8c-2.9,0-5.5-1.6-5.5-4.4v-0.1c0-2.6,2.2-4.4,6.3-4.4h6.4
			L-2.5,22.4L-2.5,22.4z"/>
	</g>
</g>
</svg>
