<?xml version="1.0" encoding="utf-8"?>
<!-- Generator: Adobe Illustrator 18.0.0, SVG Export Plug-In . SVG Version: 6.00 Build 0)  -->
<!DOCTYPE svg PUBLIC "-//W3C//DTD SVG 1.1//EN" "http://www.w3.org/Graphics/SVG/1.1/DTD/svg11.dtd">
<svg version="1.1" id="Layer_1" xmlns="http://www.w3.org/2000/svg" xmlns:xlink="http://www.w3.org/1999/xlink" x="0px" y="0px"
	 viewBox="-105.7 -14.4 221.4 38.8" enable-background="new -105.7 -14.4 221.4 38.8" xml:space="preserve">
<path fill="#FDB917" d="M-102.9,5c0,9.1,7.4,16.6,16.6,16.6S-69.8,14.2-69.8,5c0.1-9.2-7.4-16.6-16.5-16.6
	C-95.5-11.6-102.9-4.2-102.9,5L-102.9,5z M-105.7,5c0-10.7,8.7-19.4,19.4-19.4c10.7,0,19.4,8.7,19.4,19.4c0,10.7-8.7,19.4-19.4,19.4
	C-97,24.4-105.7,15.7-105.7,5L-105.7,5z"/>
<polygon fill="#FDB917" points="-25.2,17.8 -25.2,11.9 -34.9,11.9 -34.9,-7.6 -41.9,-7.6 -41.9,17.8 "/>
<path fill="#FDB917" d="M-6.4-0.8h-6.1v9c0,2.8-0.5,4.5-2.3,4.5c-1.5,0-2.3-0.9-2.3-3.4V-0.8h-5.9v11.3c0,5.3,2,8.2,5.6,8.2
	c2.3,0,3.9-1.1,5.4-3.7v2.8h5.6L-6.4-0.8L-6.4-0.8z"/>
<path fill="#FDB917" d="M3.6-0.8C3.3-3.6,4.1-3.6,6.2-3.6v-4.5H3.6c-3.9,0-6.2,0.9-6.2,7.3h-2v4.2h2v14.4h6.2V3.4h2.6v-4.2H3.6
	L3.6-0.8z"/>
<path fill="#FDB917" d="M18.2,12.5h-1c-1.5,0-1.8-0.6-1.8-2.3V3.4h3.1v-4.2h-3.1v-5.7H9.2v5.7h-2v4.2h2v7.9c0,6.2,1,7.3,9,6.5
	L18.2,12.5L18.2,12.5z"/>
<path fill="#FDB917" d="M21.6,17.8h5.9V8.5c0-2.6,0.5-4,2.6-4c1.8,0,2,1.7,2,3.4v9.9h6.2v-11c0-5.1-1.8-7.9-5.9-7.9
	c-2,0-3.6,0.9-4.9,2.8v-9.4h-5.9V17.8L21.6,17.8z"/>
<path fill="#FDB917" d="M60.9,17.8h5.9V8.5c0-2.6,0.5-4,2.6-4c1.8,0,2,1.7,2,3.4v9.9h6.2v-11c0-5.1-1.8-7.9-5.9-7.9
	c-2.3,0-3.9,1.1-5.1,3.4v-3.1h-5.6L60.9,17.8L60.9,17.8z"/>
<path fill="#FDB917" d="M79.9,12.2c0.5,4.8,4.1,6.5,7.7,6.5c5.6,0,8.2-2.8,8.2-6.8c0-7-9.5-5.1-9.5-7.9c0-0.9,0.5-1.1,1.5-1.1
	c0.5,0,1-0.1,1.5,0.4c0.2,0.6,0.3,0.7,0.3,1.2h5.9c-0.5-4.8-4.6-5.6-8-5.6c-3.1,0-7.2,1.1-7.2,5.9c0,7.3,9.3,4.8,9.3,7.9
	c0,1.1-0.8,1.7-1.8,1.7c-0.5,0-1.3-0.2-1.5-0.6c-0.4-0.5-0.5-1.1-0.5-1.7L79.9,12.2L79.9,12.2z"/>
<path fill="#FDB917" d="M106.3,18.1c-1,0.6-2,0.6-3.1,0.6c-3.1,0-5.6-2-5.6-5.9c0-5.9,5.4-5.6,8.7-6.2c1.3-0.3,2.3-0.6,2.3-1.7
	c0-1.4-1.3-1.7-2-1.7h-0.3c-0.8,0-2,0.6-2,2h-5.9c0-3.7,2.3-6.2,8-6.2h0.8c7.2,0,7.7,3.1,7.7,7.6V15c0,1.1,0,1.7,0.8,2.6v0.3h-6.4
	l-0.3-2C108.1,17,107.1,17.5,106.3,18.1L106.3,18.1z M106.3,10.2c-1.3,0.3-2.3,0.9-2.3,2.3c0,0.9,0.5,1.4,1.8,1.4h0.5
	c1.5-0.3,2.3-2,2.3-4.5C107.9,9.9,106.9,10.2,106.3,10.2L106.3,10.2z"/>
<path fill="#FDB917" d="M49,18.1c-1,0.6-2,0.6-3.1,0.6c-3.1,0-5.6-2-5.6-5.9c0-5.9,5.4-5.6,8.7-6.2c1.3-0.3,2.3-0.6,2.3-1.7
	c0-1.4-1.3-1.7-2-1.7h-0.3c-0.8,0-2,0.6-2,2h-5.9c0-3.7,2.3-6.2,8-6.2c0.3,0,0.3,0,0.8,0c7.2,0,7.7,3.1,7.7,7.6V15
	c0,1.1,0,1.7,0.8,2.6v0.3H52l-0.3-2C50.9,17,49.8,17.5,49,18.1L49,18.1z M49,10.3c-1.3,0.3-2.3,0.9-2.3,2.3c0,0.9,0.5,1.4,1.8,1.4
	H49c1.5-0.3,2.3-2,2.3-4.5C50.6,10,49.6,10.3,49,10.3L49,10.3z"/>
<path fill="#FDB917" d="M-70.9,0.4c-2.9-0.5-8.3-0.9-12.6-0.1c-0.4,0.1-1.3,5.4-6.2,5c-3.1-0.2-5.4-2.2-5.4-2.2l4.2,1.6l0.4-0.6
	l-8.2-3.5l-0.4,0.8l-2.7-0.7l-0.3,0.9c0,0,2.9,0.9,4.8,2.3c1.9,1.4,8.1,5.2,10.1,6.1c2,0.9,7,3.1,11.2,3.3c0.1,0,1.2-1.9,1.2-1.9
	s-3,0.4-4.5-0.2c-0.9-0.3-4.1-1.5-4.8-3.4c0-0.1,1-1.2,3.6-1.6c3.7-0.7,6.7-0.2,6.7-0.2l0.5-1c0,0-2.7-0.1-3.7-0.1c-1,0-4,0.1-4,0.1
	l0.2-0.6c0,0,2.2-0.2,3.9-0.2c1.2,0,3.8,0.2,3.8,0.2l0.5-1c0,0-3-0.2-4.1-0.2c-1,0-3.6,0.2-3.6,0.2l0.3-0.6c0,0,2.1-0.2,3.5-0.2
	c1.5,0,4.3,0.2,4.3,0.2l0.6-1c0,0-3.1-0.3-4.9-0.2C-77.8,1.9-79.8,2-79.8,2l0.2-0.6c3-0.5,8,0.1,8,0.1L-70.9,0.4L-70.9,0.4z"/>
</svg>
