<svg version="1.1" id="Layer_1" xmlns="http://www.w3.org/2000/svg" xmlns:xlink="http://www.w3.org/1999/xlink" x="0px" y="0px"
	 viewBox="33.1 4.7 79 500.7" enable-background="new 33.1 4.7 79 500.7" xml:space="preserve">
<g>
	<path fill="#FFFFFF" stroke="#000000" stroke-miterlimit="10" d="M81.9,76l2.6,2.1l4.8,1.8l2.8,4.3v3.3l-2.1,2.2l-1.5,4.4l-0.3,3.1
		l-2.1,1.5l-3.4,0.8L79,97.6l-2.4-2.9l-2.1-2.6l-2.1-2.8l-1.6-3.9L81.9,76z"/>
</g>
<g>
	<path fill="#FFFFFF" stroke="#000000" stroke-miterlimit="10" d="M65.8,47.8l1.5,1.8l2.9,1.8l1.8,0.5l3.8,2.6l2.1,4.2l2.7,5.6v3.2
		l0.3,3.9l1,4.6l-11.1,9.4v-2.7l-1.9-5.1l-4.5-5.1L63.3,69l-2-4.4l-0.7-3.7v-3.2L58,54.7l-3.3-2.9L65.8,47.8z"/>
</g>
<g data-id="baa" class="baa exist">
	<polygon fill="#FFFFFF" stroke="#000000" stroke-miterlimit="10" points="58,77.1 59.5,77.8 59.2,79 58,79.3 57.1,78.2 	"/>
	<path fill="#FFFFFF" stroke="#000000" stroke-miterlimit="10" d="M58.9,82.3l1.5,1l1,2.6l1.3,2.4l0.4,3.3l0.7,5.5l1.1,2.4l0.5,4.2
		v3l-0.5,3.2l-1.4,4.4l-1.8,1.1l-3.9,2.5l-3.5,0.4h-2l-0.5-0.8l0.8-0.6c0,0,0.2-0.6,0.2-0.8s0.3-1.9,0.3-1.9l-0.3-2.3l-1.8-1.3
		l-1.6-2v-3.9l0.8-4.3l0.6-2.9l1.4-4.1l1.4-5.4l2.2-2.6l1.7-2.4l0.9-0.7L58.9,82.3L58.9,82.3z"/>
</g>
<g>
	<polygon fill="#FFFFFF" stroke="#000000" stroke-miterlimit="10" points="93.5,104.9 93.6,105.1 94.9,107.6 96.8,109 99.3,110.6
		101.5,113.1 103.8,116.5 102.9,121 99.2,123.3 96.5,124.1 93.5,123 92.7,120.7 91.4,119 88.4,117.7 85.2,117.4 83.2,116.5
		83.5,113.9 84.8,110 86.9,108.6 88.2,107.1 90.7,105.9 92.2,104.9 93.5,104.5 	"/>
</g>
<g>
	<polygon fill="#FFFFFF" stroke="#000000" stroke-miterlimit="10" points="53.6,122.7 54,122 56,120.9 57.4,119.8 59,119.3
		61.9,117.8 64.4,117 66.8,117.4 68.7,119.5 70.6,121.5 73.2,124.1 74.2,126.8 72.5,128.5 68.1,133.8 65.4,136 60.8,139.5
		57.4,140.5 54.8,140 52.4,139.5 50.8,137.3 50.4,135.8 49.4,134.2 50,132.3 50.8,130.5 51.3,128.7 51.4,126.3 52.3,124.8 	"/>
	<polygon fill="#FFFFFF" stroke="#000000" stroke-miterlimit="10" points="62.8,148.3 61.8,149.3 59.4,151.1 56.5,152.1 54.1,151.6
		52.9,150.2 52.9,148.7 53.9,147.6 55.6,147.6 57.4,147.6 59.7,147.6 61.5,147.6 62.3,148 	"/>
</g>
<g data-id="kaafu" class="kaafu exist">
	<polygon fill="#FFFFFF" stroke="#000000" stroke-miterlimit="10" points="90.1,141.6 92.2,142 91.8,143.8 90.1,143.8 90.1,142.1
		"/>
	<polygon fill="#FFFFFF" stroke="#000000" stroke-miterlimit="10" points="87,154.3 86.3,155.8 87.7,157.1 89.1,157.1 91.6,157.1
		93.5,157.1 93.5,155.2 91.5,154.3 89.2,153.9 	"/>
	<polygon fill="#FFFFFF" stroke="#000000" stroke-miterlimit="10" points="92.1,158.6 93.9,159.6 96.4,161.4 98.8,163.8
		100.2,166.9 102,168.8 105.3,171.1 107.3,173.4 107.3,176.7 105.3,178.8 102,181.3 99.7,183.1 98,186 97.2,190.5 95.8,193
		93.9,193.3 90.7,193.3 88.6,193.3 87.5,191.5 84.8,189.3 84.1,187.9 84.1,184.7 84.1,181.9 84.1,178 84.8,174.5 84.8,172.2
		85,169.7 85.2,168.2 86.3,166 87.2,165.2 88.8,161.6 91.2,158.6 	"/>
	<polygon fill="#FFFFFF" stroke="#000000" stroke-miterlimit="10" points="95.3,196 96.4,199.3 96.4,201.9 94.7,209.7 92.7,212.9
		90.1,216 87.5,216 85.3,212.9 85.3,209.2 85.7,202.1 86.2,198.6 88,197.7 88.9,196 92.1,195.5 93.3,195.5 	"/>
</g>
<g>
	<polygon fill="#FFFFFF" stroke="#000000" stroke-miterlimit="10" points="58.9,210.5 59.5,213.1 60.2,216 60.2,219 60.2,225
		58.7,233.2 56.3,236 53.6,238.3 51,238 46.9,237.3 44.7,236.1 44.1,231.5 44.1,229.4 42.2,220.2 42.6,211.7 	"/>
</g>
<g>
	<polygon fill="#FFFFFF" stroke="#000000" stroke-miterlimit="10" points="90.9,223.6 93.8,226.1 94.7,229.9 95.9,234.2 97.9,237.6
		100.5,239.1 103.1,238.6 105,237.5 108,236.1 109.7,237 111.6,239.8 111,243.2 108.4,244.6 105.3,245.6 102.3,244.9 98.3,245.6
		96.4,246.1 95.3,247.7 92.4,248.4 89.6,246.9 88.1,244.5 85.8,241 82.7,240 80.8,239.5 79.6,238.2 79.6,235.4 80.8,233.9 81.8,231
		84.8,226.9 86.8,225 88.9,224.5 90.6,223.6 	"/>
	<polygon fill="#FFFFFF" stroke="#000000" stroke-miterlimit="10" points="89.8,250.1 91.8,250.6 91.8,252.7 89.2,253.5 87.6,252.9
		87.6,251.2 88.9,250.1 	"/>
</g>
<g>
	<polygon fill="#FFFFFF" stroke="#000000" stroke-miterlimit="10" points="85.8,257 85.8,261.5 85.8,266.9 85.8,270.6 85.4,272.9
		84.8,278.7 84.8,283.4 87.6,284.4 91.8,281.7 95.2,278.2 98.5,277 99,275.4 101.4,272.5 102.6,267.2 103.6,264.5 104.8,261.5
		103.1,260.9 101.3,259.8 96.8,260 92.8,257 88.2,257 86.4,257 	"/>
</g>
<g>
	<path fill="#FFFFFF" stroke="#000000" stroke-miterlimit="10" d="M56.7,246.8l3.1,1.6l2.2,1.8l2.4,3.3v2.2l-1.1,5.7l-3,1.9l-4,1.1
		l-2.7-1.3c0,0-1.3-1.5-1.3-1.9s0-3.2,0-3.2l-1.8-3.3l-0.8-2.8l0.9-2.2l2.1-1.8l2.3-0.4L56.7,246.8z"/>
</g>
<g>
	<polygon fill="#FFFFFF" stroke="#000000" stroke-miterlimit="10" points="61.3,268 61.7,268.1 62.9,268.5 63.8,271.1 63.8,272.1
		63.8,277.5 63.3,283.5 61.3,285.9 57.8,288.6 53,290 51.9,286.6 50.3,282.8 50.3,278.4 50.3,273.8 51.5,272.2 53.6,268.6 57,267.5
		59.7,267.5 	"/>
</g>
<g>
	<polygon fill="#FFFFFF" stroke="#000000" stroke-miterlimit="10" points="71.3,296.7 73.4,297.4 75.6,298.6 77.3,299.6 80.4,299.6
		83,300.8 85.2,303.8 86.7,307.1 84.8,310 81.1,313.1 76.6,316.1 70.4,319.2 65.8,321.3 62.2,321 58.7,319.1 57.4,315.5 56.3,311
		55.9,307.5 55,305.5 55,301.8 55.9,300.9 58.3,298.8 61.9,298.2 65.4,297.1 68.7,296.1 	"/>
</g>
<g data-id="laamu" class="laamu exist">
	<polygon fill="#FFFFFF" stroke="#000000" stroke-miterlimit="10" points="99.7,323.2 96.6,325.9 96.6,330 96.6,333.8 96.6,338.1
		93.8,343.5 90,344.8 87,345.2 84,346.3 81.1,345.8 79.6,343.5 77.8,342.7 77.3,339.8 77.3,337.3 78.8,335.3 81.7,333 85.3,331.2
		90.8,327.3 94,325.7 96.9,324.3 97.9,323.2 99,322.8 99.7,322.8 	"/>
</g>
<g>
	<path fill="#FFFFFF" stroke="#000000" stroke-miterlimit="10" d="M65.8,422.2l-3,2.1l-1.6,3.2v3.4l0.6,3.5l1.2,3.6l1.3,3.5l2.9,2.6
		l2.3,2.4l3.6,1.1h3.2l3.7-1l1.8-2.1l3.2-0.9l2.4-0.5l2.7-0.1l4-3.5L65.8,422.2z"/>
</g>
<g>
	<polygon fill="#FFFFFF" stroke="#000000" stroke-miterlimit="10" points="89.1,476.2 90.7,478.6 90.7,481.5 89.9,483 89.1,481.7
		88.8,480 88.3,478.5 87.8,477.7 87.3,476.2 88.4,475.7 	"/>
</g>
<g>
	<path fill="#FFFFFF" stroke="#000000" stroke-miterlimit="10" d="M77.1,497v2.4l-0.7,1.7l-1.8,2.4l-1.8,1.3h-2c0,0-0.6-1.2-0.8-1.2
		s-2.1-1.6-2.1-1.6l-0.9-1.9V497h1.3l0.6,0.5l1.2,0.3h1.1l2.5-0.8l1.4-0.6h2l0.3,0.4L77.1,497z"/>
</g>
<g>
	<polygon fill="#FFFFFF" stroke="#000000" stroke-miterlimit="10" points="43.7,50.8 41.9,52.9 39.2,56.5 38.8,59 37.8,62.4
		36.4,63.3 34.5,63.3 33.6,61.7 33.6,60.1 34.3,57.6 35.8,55 37.1,53.5 38.6,51.5 40.8,50.4 42.5,49.6 43.2,49.6 	"/>
	<path fill="#FFFFFF" stroke="#000000" stroke-miterlimit="10" d="M71.7,28.5l-2.8,3.1l-1.8,2.6l-0.8,3v2.7l-0.5,4.5v3.5l-11.1,4
		l-1-6c0,0-0.2-3.5,0-3.8s-0.1-4.3-0.1-4.3l0.9-5.6l2.2-3.7H71.7z"/>
</g>
<g>
	<polygon fill="#FFFFFF" stroke="#000000" stroke-miterlimit="10" points="56,5.2 56.3,5.3 57.5,5.9 59.2,7 60,8.1 61.3,9.2
		62.4,12.1 62.4,13.5 60.8,14.5 61.3,15.6 60.9,17.3 59.8,17.3 57.9,17.7 56.6,16.2 55.2,14.8 53.3,13.2 51.8,12.6 49.6,11
		49.6,9.3 49.9,7.6 50.7,7.4 52.8,5.6 54.6,5.2 		"/>
	<path fill="#FFFFFF" stroke="#000000" stroke-miterlimit="10" d="M75.3,14.9l1.1,1.6l0.6,1.8l0,2.7L76,22.8L74.3,26l-2.8,2.5
		l-15-0.3l2-5.1l1.4-1.6l3.8-0.2l2.5-1.8l2.7-3.3l2.9-1.5l2,0L75.3,14.9z"/>
</g>
<g>
	<polyline fill="#FFFFFF" stroke="#000000" stroke-miterlimit="10" points="60.2,183 62.3,183 63.8,184.5 63.1,187 61,188
		59.1,186.8 58.6,184.6 59.1,183.4 60.2,182.6 	"/>
	<polygon fill="#FFFFFF" stroke="#000000" stroke-miterlimit="10" points="50.6,185.8 52.3,187.5 54.5,190 56.7,193.3 58.6,197.4
		58.9,201 58.9,204.7 58.9,208.4 58.9,210.5 42.6,211.7 43.5,202.4 43.7,195.5 44.2,193.3 46,187.4 47.7,186.5 	"/>
</g>
<g>
	<path fill="#FFFFFF" stroke="#000000" stroke-miterlimit="10" d="M73.8,404.9l0.5,2.1l1.3,1.7l1.8,2.2l-1,3.1l-3.9,3.8l-3.8,1.6
		l-2.9,2.9l28.4,17.3c0,0,3.5-2.6,3.5-3s2.2-4.5,2.2-4.5s-0.7-1.2-0.8-1.8c-0.2-0.6-1.8-3.2-1.8-4s-3.2-5-3.2-5l-2.8-2.2l-0.2-3.3
		l-0.3-4.6l-2.2-5.6l-2.1-3.5c0,0-0.2,0.1-0.6,0c-0.3-0.1-3.2,0-3.2,0l-4.1-0.8l-1.5,0.6l-0.9,0.8l-1.9,1.2L73.8,404.9z"/>
</g>
</svg>
